<svg width="22" height="22" viewBox="0 0 22 22" fill="none" xmlns="http://www.w3.org/2000/svg">
<g clip-path="url(#clip0_2_3335)">
<path d="M16.335 0H5.445C2.43781 0 0 2.43781 0 5.445V16.335C0 19.3422 2.43781 21.78 5.445 21.78H16.335C19.3422 21.78 21.78 19.3422 21.78 16.335V5.445C21.78 2.43781 19.3422 0 16.335 0Z" fill="#FF804A"/>
<path fill-rule="evenodd" clip-rule="evenodd" d="M8.51753 15.7236C8.12664 15.4956 7.99438 14.9942 8.22247 14.6031L9.85634 11.8019L6.52267 11.8018C6.06997 11.802 5.70311 11.4351 5.70313 10.9825C5.70318 10.5299 6.07008 10.1629 6.52257 10.163L9.73093 10.1632L8.11105 7.35708C7.8847 6.96527 8.01904 6.46405 8.411 6.23769C8.80275 6.01168 9.30396 6.14597 9.53031 6.53778L11.22 9.46406L12.9015 6.58105C13.1296 6.19002 13.6314 6.05789 14.0223 6.28593C14.4132 6.51396 14.5453 7.01575 14.3172 7.4068L12.7096 10.1629L15.8095 10.1631C16.262 10.1632 16.629 10.5302 16.629 10.9824C16.6292 11.4351 16.2623 11.8021 15.8097 11.8019L12.5696 11.8021L14.1738 14.5804C14.4002 14.9723 14.2659 15.4735 13.874 15.6999C13.4818 15.9262 12.9809 15.7921 12.7547 15.3999L11.2127 12.7293L9.63812 15.4289C9.41026 15.8196 8.90846 15.9517 8.51753 15.7236Z" fill="white"/>
<path fill-rule="evenodd" clip-rule="evenodd" d="M8.51753 15.7236C8.12664 15.4956 7.99438 14.9942 8.22247 14.6031L9.85634 11.8019L6.52267 11.8018C6.06997 11.802 5.70311 11.4351 5.70313 10.9825C5.70318 10.5299 6.07008 10.1629 6.52257 10.163L9.73093 10.1632L8.11105 7.35708C7.8847 6.96527 8.01904 6.46405 8.411 6.23769C8.80275 6.01168 9.30396 6.14597 9.53031 6.53778L11.22 9.46406L12.9015 6.58105C13.1296 6.19002 13.6314 6.05789 14.0223 6.28593C14.4132 6.51396 14.5453 7.01575 14.3172 7.4068L12.7096 10.1629L15.8095 10.1631C16.262 10.1632 16.629 10.5302 16.629 10.9824C16.6292 11.4351 16.2623 11.8021 15.8097 11.8019L12.5696 11.8021L14.1738 14.5804C14.4002 14.9723 14.2659 15.4735 13.874 15.6999C13.4818 15.9262 12.9809 15.7921 12.7547 15.3999L11.2127 12.7293L9.63812 15.4289C9.41026 15.8196 8.90846 15.9517 8.51753 15.7236Z" fill="url(#paint0_linear_2_3335)"/>
</g>
<defs>
<linearGradient id="paint0_linear_2_3335" x1="13.902" y1="6.21646" x2="8.43916" y2="15.6784" gradientUnits="userSpaceOnUse">
<stop stop-color="white"/>
<stop offset="1" stop-color="white"/>
</linearGradient>
<clipPath id="clip0_2_3335">
<rect width="21.78" height="21.78" fill="white"/>
</clipPath>
</defs>
</svg>
