<svg width="114" height="114" viewBox="0 0 114 114" fill="none" xmlns="http://www.w3.org/2000/svg">
<g filter="url(#filter0_ddi_2_884)">
<path d="M82.0359 10.8403H30.9771C21.5775 10.8403 13.9575 18.4601 13.9575 27.8597V78.918C13.9575 88.3175 21.5775 95.9374 30.9771 95.9374H82.0359C91.4356 95.9374 99.0556 88.3175 99.0556 78.918V27.8597C99.0556 18.4601 91.4356 10.8403 82.0359 10.8403Z" fill="url(#paint0_linear_2_884)"/>
<path d="M82.0359 10.8403H30.9771C21.5775 10.8403 13.9575 18.4601 13.9575 27.8597V78.918C13.9575 88.3175 21.5775 95.9374 30.9771 95.9374H82.0359C91.4356 95.9374 99.0556 88.3175 99.0556 78.918V27.8597C99.0556 18.4601 91.4356 10.8403 82.0359 10.8403Z" fill="url(#paint1_radial_2_884)" fill-opacity="0.1"/>
<path d="M82.0359 10.1311H30.9771C21.1857 10.1311 13.2483 18.0685 13.2483 27.8597V78.918C13.2483 88.7092 21.1857 96.6465 30.9771 96.6465H82.0359C91.8272 96.6465 99.7646 88.7092 99.7646 78.918V27.8597C99.7646 18.0685 91.8272 10.1311 82.0359 10.1311Z" stroke="white" stroke-opacity="0.04" stroke-width="1.55864"/>
<path d="M82.0359 10.1311H30.9771C21.1857 10.1311 13.2483 18.0685 13.2483 27.8597V78.918C13.2483 88.7092 21.1857 96.6465 30.9771 96.6465H82.0359C91.8272 96.6465 99.7646 88.7092 99.7646 78.918V27.8597C99.7646 18.0685 91.8272 10.1311 82.0359 10.1311Z" stroke="url(#paint2_radial_2_884)" stroke-opacity="0.3" stroke-width="1.55864"/>
<path d="M82.0359 10.1311H30.9771C21.1857 10.1311 13.2483 18.0685 13.2483 27.8597V78.918C13.2483 88.7092 21.1857 96.6465 30.9771 96.6465H82.0359C91.8272 96.6465 99.7646 88.7092 99.7646 78.918V27.8597C99.7646 18.0685 91.8272 10.1311 82.0359 10.1311Z" stroke="url(#paint3_radial_2_884)" stroke-opacity="0.1" stroke-width="1.55864"/>
<g filter="url(#filter1_i_2_884)">
<path fill-rule="evenodd" clip-rule="evenodd" d="M47.2049 70.1327C45.8345 69.3333 45.3708 67.5753 46.1704 66.2044L51.8985 56.3837L40.2112 56.3834C38.6241 56.3842 37.338 55.0979 37.338 53.511C37.3382 51.9242 38.6245 50.6377 40.2109 50.6381L51.4588 50.6387L45.7798 40.8009C44.9863 39.4273 45.4572 37.6701 46.8314 36.8766C48.2048 36.0842 49.9619 36.555 50.7555 37.9286L56.6792 48.1877L62.5744 38.0803C63.3741 36.7094 65.1332 36.2462 66.5037 37.0457C67.8742 37.8451 68.3371 39.6043 67.5376 40.9753L61.9016 50.6378L72.7692 50.6382C74.3558 50.6388 75.6422 51.9252 75.6424 53.5106C75.6431 55.0979 74.3566 56.3843 72.77 56.3837L61.4106 56.3844L67.0346 66.1248C67.8284 67.4986 67.3576 69.2559 65.9838 70.0497C64.6088 70.8427 62.8528 70.3726 62.0597 68.9976L56.6537 59.6352L51.1335 69.0993C50.3346 70.469 48.5754 70.9322 47.2049 70.1327Z" fill="white"/>
<path fill-rule="evenodd" clip-rule="evenodd" d="M47.2049 70.1327C45.8345 69.3333 45.3708 67.5753 46.1704 66.2044L51.8985 56.3837L40.2112 56.3834C38.6241 56.3842 37.338 55.0979 37.338 53.511C37.3382 51.9242 38.6245 50.6377 40.2109 50.6381L51.4588 50.6387L45.7798 40.8009C44.9863 39.4273 45.4572 37.6701 46.8314 36.8766C48.2048 36.0842 49.9619 36.555 50.7555 37.9286L56.6792 48.1877L62.5744 38.0803C63.3741 36.7094 65.1332 36.2462 66.5037 37.0457C67.8742 37.8451 68.3371 39.6043 67.5376 40.9753L61.9016 50.6378L72.7692 50.6382C74.3558 50.6388 75.6422 51.9252 75.6424 53.5106C75.6431 55.0979 74.3566 56.3843 72.77 56.3837L61.4106 56.3844L67.0346 66.1248C67.8284 67.4986 67.3576 69.2559 65.9838 70.0497C64.6088 70.8427 62.8528 70.3726 62.0597 68.9976L56.6537 59.6352L51.1335 69.0993C50.3346 70.469 48.5754 70.9322 47.2049 70.1327Z" fill="url(#paint4_linear_2_884)"/>
</g>
</g>
<defs>
<filter id="filter0_ddi_2_884" x="-0.000106812" y="-3.8147e-06" width="113.013" height="113.012" filterUnits="userSpaceOnUse" color-interpolation-filters="sRGB">
<feFlood flood-opacity="0" result="BackgroundImageFix"/>
<feColorMatrix in="SourceAlpha" type="matrix" values="0 0 0 0 0 0 0 0 0 0 0 0 0 0 0 0 0 0 127 0" result="hardAlpha"/>
<feOffset dy="3.11728"/>
<feGaussianBlur stdDeviation="6.23455"/>
<feColorMatrix type="matrix" values="0 0 0 0 0 0 0 0 0 0 0 0 0 0 0 0 0 0 0.2 0"/>
<feBlend mode="normal" in2="BackgroundImageFix" result="effect1_dropShadow_2_884"/>
<feColorMatrix in="SourceAlpha" type="matrix" values="0 0 0 0 0 0 0 0 0 0 0 0 0 0 0 0 0 0 127 0" result="hardAlpha"/>
<feOffset dy="1.55864"/>
<feGaussianBlur stdDeviation="0.779319"/>
<feColorMatrix type="matrix" values="0 0 0 0 0 0 0 0 0 0 0 0 0 0 0 0 0 0 0.1 0"/>
<feBlend mode="normal" in2="effect1_dropShadow_2_884" result="effect2_dropShadow_2_884"/>
<feBlend mode="normal" in="SourceGraphic" in2="effect2_dropShadow_2_884" result="shape"/>
<feColorMatrix in="SourceAlpha" type="matrix" values="0 0 0 0 0 0 0 0 0 0 0 0 0 0 0 0 0 0 127 0" result="hardAlpha"/>
<feOffset/>
<feGaussianBlur stdDeviation="3.11728"/>
<feComposite in2="hardAlpha" operator="arithmetic" k2="-1" k3="1"/>
<feColorMatrix type="matrix" values="0 0 0 0 1 0 0 0 0 1 0 0 0 0 1 0 0 0 0.1 0"/>
<feBlend mode="normal" in2="shape" result="effect3_innerShadow_2_884"/>
</filter>
<filter id="filter1_i_2_884" x="37.3381" y="35.7125" width="38.3042" height="34.8119" filterUnits="userSpaceOnUse" color-interpolation-filters="sRGB">
<feFlood flood-opacity="0" result="BackgroundImageFix"/>
<feBlend mode="normal" in="SourceGraphic" in2="BackgroundImageFix" result="shape"/>
<feColorMatrix in="SourceAlpha" type="matrix" values="0 0 0 0 0 0 0 0 0 0 0 0 0 0 0 0 0 0 127 0" result="hardAlpha"/>
<feOffset dy="-0.779319"/>
<feGaussianBlur stdDeviation="0.779319"/>
<feComposite in2="hardAlpha" operator="arithmetic" k2="-1" k3="1"/>
<feColorMatrix type="matrix" values="0 0 0 0 0 0 0 0 0 0 0 0 0 0 0 0 0 0 0.45 0"/>
<feBlend mode="normal" in2="shape" result="effect1_innerShadow_2_884"/>
</filter>
<linearGradient id="paint0_linear_2_884" x1="56.5065" y1="36.3694" x2="56.5065" y2="95.9374" gradientUnits="userSpaceOnUse">
<stop stop-color="#1F1F21"/>
<stop offset="1" stop-color="#202022"/>
</linearGradient>
<radialGradient id="paint1_radial_2_884" cx="0" cy="0" r="1" gradientTransform="matrix(48.2222 15.6011 -18.9378 58.5343 -0.225486 42.0426)" gradientUnits="userSpaceOnUse">
<stop stop-color="#24FF95"/>
<stop offset="1" stop-color="#24FF95" stop-opacity="0"/>
</radialGradient>
<radialGradient id="paint2_radial_2_884" cx="0" cy="0" r="1" gradientTransform="matrix(46.8039 8.50967 -6.55851 36.0716 7.57509 46.2974)" gradientUnits="userSpaceOnUse">
<stop stop-color="#A8FFD5"/>
<stop offset="1" stop-color="#BDFFDF" stop-opacity="0"/>
</radialGradient>
<radialGradient id="paint3_radial_2_884" cx="0" cy="0" r="1" gradientTransform="matrix(-3.47783 48.9308 -35.5041 -2.52345 52.8928 10.8403)" gradientUnits="userSpaceOnUse">
<stop stop-color="white" stop-opacity="0.48"/>
<stop offset="1" stop-color="white" stop-opacity="0.04"/>
</radialGradient>
<linearGradient id="paint4_linear_2_884" x1="66.0819" y1="36.8021" x2="46.9301" y2="69.9741" gradientUnits="userSpaceOnUse">
<stop stop-color="white"/>
<stop offset="1" stop-color="#BABABA"/>
</linearGradient>
</defs>
</svg>
