<svg width="114" height="114" viewBox="0 0 114 114" fill="none" xmlns="http://www.w3.org/2000/svg">
<g filter="url(#filter0_ddi_2_1791)">
<path d="M82.0359 10.8403H30.9771C21.5775 10.8403 13.9575 18.4601 13.9575 27.8597V78.918C13.9575 88.3175 21.5775 95.9374 30.9771 95.9374H82.0359C91.4356 95.9374 99.0556 88.3175 99.0556 78.918V27.8597C99.0556 18.4601 91.4356 10.8403 82.0359 10.8403Z" fill="url(#paint0_linear_2_1791)"/>
<path d="M82.0359 10.8403H30.9771C21.5775 10.8403 13.9575 18.4601 13.9575 27.8597V78.918C13.9575 88.3175 21.5775 95.9374 30.9771 95.9374H82.0359C91.4356 95.9374 99.0556 88.3175 99.0556 78.918V27.8597C99.0556 18.4601 91.4356 10.8403 82.0359 10.8403Z" fill="url(#paint1_radial_2_1791)" fill-opacity="0.1"/>
<path d="M82.036 10.1311H30.9772C21.1858 10.1311 13.2484 18.0685 13.2484 27.8597V78.918C13.2484 88.7092 21.1858 96.6465 30.9772 96.6465H82.036C91.8273 96.6465 99.7648 88.7092 99.7648 78.918V27.8597C99.7648 18.0685 91.8273 10.1311 82.036 10.1311Z" stroke="white" stroke-opacity="0.04" stroke-width="1.55864"/>
<path d="M82.036 10.1311H30.9772C21.1858 10.1311 13.2484 18.0685 13.2484 27.8597V78.918C13.2484 88.7092 21.1858 96.6465 30.9772 96.6465H82.036C91.8273 96.6465 99.7648 88.7092 99.7648 78.918V27.8597C99.7648 18.0685 91.8273 10.1311 82.036 10.1311Z" stroke="url(#paint2_radial_2_1791)" stroke-opacity="0.3" stroke-width="1.55864"/>
<path d="M82.036 10.1311H30.9772C21.1858 10.1311 13.2484 18.0685 13.2484 27.8597V78.918C13.2484 88.7092 21.1858 96.6465 30.9772 96.6465H82.036C91.8273 96.6465 99.7648 88.7092 99.7648 78.918V27.8597C99.7648 18.0685 91.8273 10.1311 82.036 10.1311Z" stroke="url(#paint3_radial_2_1791)" stroke-opacity="0.1" stroke-width="1.55864"/>
<g filter="url(#filter1_i_2_1791)">
<path fill-rule="evenodd" clip-rule="evenodd" d="M47.205 70.1327C45.8346 69.3333 45.3709 67.5753 46.1706 66.2044L51.8986 56.3837L40.2113 56.3834C38.6242 56.3842 37.3381 55.0979 37.3381 53.511C37.3383 51.9242 38.6246 50.6377 40.211 50.6381L51.459 50.6387L45.7799 40.8009C44.9864 39.4273 45.4574 37.6701 46.8315 36.8766C48.2049 36.0842 49.9621 36.555 50.7556 37.9286L56.6793 48.1877L62.5745 38.0803C63.3742 36.7094 65.1333 36.2462 66.5038 37.0457C67.8744 37.8451 68.3372 39.6043 67.5377 40.9753L61.9017 50.6378L72.7693 50.6382C74.3559 50.6388 75.6423 51.9252 75.6425 53.5106C75.6432 55.0979 74.3568 56.3843 72.7701 56.3837L61.4108 56.3844L67.0348 66.1248C67.8285 67.4986 67.3577 69.2559 65.9839 70.0497C64.6089 70.8427 62.8529 70.3726 62.0598 68.9976L56.6538 59.6352L51.1336 69.0993C50.3347 70.469 48.5755 70.9322 47.205 70.1327Z" fill="white"/>
<path fill-rule="evenodd" clip-rule="evenodd" d="M47.205 70.1327C45.8346 69.3333 45.3709 67.5753 46.1706 66.2044L51.8986 56.3837L40.2113 56.3834C38.6242 56.3842 37.3381 55.0979 37.3381 53.511C37.3383 51.9242 38.6246 50.6377 40.211 50.6381L51.459 50.6387L45.7799 40.8009C44.9864 39.4273 45.4574 37.6701 46.8315 36.8766C48.2049 36.0842 49.9621 36.555 50.7556 37.9286L56.6793 48.1877L62.5745 38.0803C63.3742 36.7094 65.1333 36.2462 66.5038 37.0457C67.8744 37.8451 68.3372 39.6043 67.5377 40.9753L61.9017 50.6378L72.7693 50.6382C74.3559 50.6388 75.6423 51.9252 75.6425 53.5106C75.6432 55.0979 74.3568 56.3843 72.7701 56.3837L61.4108 56.3844L67.0348 66.1248C67.8285 67.4986 67.3577 69.2559 65.9839 70.0497C64.6089 70.8427 62.8529 70.3726 62.0598 68.9976L56.6538 59.6352L51.1336 69.0993C50.3347 70.469 48.5755 70.9322 47.205 70.1327Z" fill="url(#paint4_linear_2_1791)"/>
</g>
</g>
<defs>
<filter id="filter0_ddi_2_1791" x="1.52588e-05" y="-3.8147e-06" width="113.013" height="113.012" filterUnits="userSpaceOnUse" color-interpolation-filters="sRGB">
<feFlood flood-opacity="0" result="BackgroundImageFix"/>
<feColorMatrix in="SourceAlpha" type="matrix" values="0 0 0 0 0 0 0 0 0 0 0 0 0 0 0 0 0 0 127 0" result="hardAlpha"/>
<feOffset dy="3.11728"/>
<feGaussianBlur stdDeviation="6.23455"/>
<feColorMatrix type="matrix" values="0 0 0 0 0 0 0 0 0 0 0 0 0 0 0 0 0 0 0.2 0"/>
<feBlend mode="normal" in2="BackgroundImageFix" result="effect1_dropShadow_2_1791"/>
<feColorMatrix in="SourceAlpha" type="matrix" values="0 0 0 0 0 0 0 0 0 0 0 0 0 0 0 0 0 0 127 0" result="hardAlpha"/>
<feOffset dy="1.55864"/>
<feGaussianBlur stdDeviation="0.779319"/>
<feColorMatrix type="matrix" values="0 0 0 0 0 0 0 0 0 0 0 0 0 0 0 0 0 0 0.1 0"/>
<feBlend mode="normal" in2="effect1_dropShadow_2_1791" result="effect2_dropShadow_2_1791"/>
<feBlend mode="normal" in="SourceGraphic" in2="effect2_dropShadow_2_1791" result="shape"/>
<feColorMatrix in="SourceAlpha" type="matrix" values="0 0 0 0 0 0 0 0 0 0 0 0 0 0 0 0 0 0 127 0" result="hardAlpha"/>
<feOffset/>
<feGaussianBlur stdDeviation="3.11728"/>
<feComposite in2="hardAlpha" operator="arithmetic" k2="-1" k3="1"/>
<feColorMatrix type="matrix" values="0 0 0 0 1 0 0 0 0 1 0 0 0 0 1 0 0 0 0.1 0"/>
<feBlend mode="normal" in2="shape" result="effect3_innerShadow_2_1791"/>
</filter>
<filter id="filter1_i_2_1791" x="37.3381" y="35.7125" width="38.3043" height="34.8119" filterUnits="userSpaceOnUse" color-interpolation-filters="sRGB">
<feFlood flood-opacity="0" result="BackgroundImageFix"/>
<feBlend mode="normal" in="SourceGraphic" in2="BackgroundImageFix" result="shape"/>
<feColorMatrix in="SourceAlpha" type="matrix" values="0 0 0 0 0 0 0 0 0 0 0 0 0 0 0 0 0 0 127 0" result="hardAlpha"/>
<feOffset dy="-0.779319"/>
<feGaussianBlur stdDeviation="0.779319"/>
<feComposite in2="hardAlpha" operator="arithmetic" k2="-1" k3="1"/>
<feColorMatrix type="matrix" values="0 0 0 0 0 0 0 0 0 0 0 0 0 0 0 0 0 0 0.45 0"/>
<feBlend mode="normal" in2="shape" result="effect1_innerShadow_2_1791"/>
</filter>
<linearGradient id="paint0_linear_2_1791" x1="56.5065" y1="36.3694" x2="56.5065" y2="95.9374" gradientUnits="userSpaceOnUse">
<stop stop-color="#1F1F21"/>
<stop offset="1" stop-color="#202022"/>
</linearGradient>
<radialGradient id="paint1_radial_2_1791" cx="0" cy="0" r="1" gradientTransform="matrix(48.2222 15.6011 -18.9378 58.5343 -0.225486 42.0426)" gradientUnits="userSpaceOnUse">
<stop stop-color="#5724E9" stop-opacity="0.341176"/>
<stop offset="1" stop-color="#5724E9" stop-opacity="0"/>
</radialGradient>
<radialGradient id="paint2_radial_2_1791" cx="0" cy="0" r="1" gradientTransform="matrix(46.8039 8.50967 -6.55851 36.0716 7.57521 46.2974)" gradientUnits="userSpaceOnUse">
<stop stop-color="#A8FFD5"/>
<stop offset="1" stop-color="#BDFFDF" stop-opacity="0"/>
</radialGradient>
<radialGradient id="paint3_radial_2_1791" cx="0" cy="0" r="1" gradientTransform="matrix(-3.47783 48.9308 -35.5041 -2.52345 52.8929 10.8403)" gradientUnits="userSpaceOnUse">
<stop stop-color="white" stop-opacity="0.48"/>
<stop offset="1" stop-color="white" stop-opacity="0.04"/>
</radialGradient>
<linearGradient id="paint4_linear_2_1791" x1="66.082" y1="36.8021" x2="46.9302" y2="69.9741" gradientUnits="userSpaceOnUse">
<stop stop-color="white"/>
<stop offset="1" stop-color="#BABABA"/>
</linearGradient>
</defs>
</svg>
