<svg width="46" height="46" viewBox="0 0 46 46" fill="none" xmlns="http://www.w3.org/2000/svg">
<rect x="0.713036" y="0.713036" width="44.2082" height="44.2082" rx="22.1041" fill="url(#paint0_linear_2_3298)" fill-opacity="0.14"/>
<rect x="0.713036" y="0.713036" width="44.2082" height="44.2082" rx="22.1041" stroke="#252633" stroke-width="1.42607"/>
<path d="M27.8612 12.3605C27.0014 12.3421 25.9792 12.5276 24.8212 12.9095C24.6475 12.9704 24.5103 13.0666 24.3866 13.1884C23.2088 14.294 22.0631 15.4661 20.9802 16.6778L20.8971 16.7698C20.8741 16.7959 20.8713 16.8347 20.8882 16.8648C20.9057 16.8952 20.9401 16.911 20.9742 16.9034L21.0959 16.8781C22.8412 16.5051 24.6032 16.2186 26.3316 16.0295C26.4454 16.017 26.5627 16.056 26.6476 16.1334C26.7324 16.2116 26.782 16.3231 26.7796 16.439C26.7511 18.1544 26.8123 19.8783 26.9651 21.5634L26.9754 21.6732C26.9794 21.7068 27.0025 21.734 27.0364 21.7429C27.0424 21.7444 27.048 21.746 27.0557 21.746C27.0812 21.7464 27.1068 21.7342 27.1224 21.7119L27.1862 21.6213C28.1599 20.2318 29.2201 18.8811 30.3345 17.6037C30.4592 17.4616 30.492 17.3722 30.5154 17.2432C30.8663 14.9977 30.3248 13.3371 29.8404 12.917C29.4197 12.5523 28.8092 12.3809 27.8612 12.3605ZM25.1877 16.9093L25.0809 16.9241C23.4135 17.1538 21.7255 17.4719 20.0633 17.8692C19.8985 17.9152 19.7928 18.0223 19.7695 18.0472C18.5256 19.5369 17.3474 21.1049 16.2667 22.7116C16.2127 22.793 16.2074 22.9876 16.2074 22.9876C16.2074 22.9876 16.4785 25.0806 16.875 26.6225C15.8925 29.4481 15.0161 33.1712 15.0161 33.1712C15.0092 33.1953 15.0138 33.2205 15.0279 33.2409C15.0427 33.2613 15.0662 33.2742 15.0917 33.275H15.651C15.6864 33.2755 15.7173 33.2541 15.7297 33.2215L15.7683 33.1163C16.3391 31.5594 16.9896 30.0223 17.7088 28.5245C17.8763 28.1755 18.2296 27.4711 18.2296 27.4711C18.2876 27.3568 18.5587 26.8369 18.6198 26.7204L18.6302 26.6996C20.4411 23.2836 22.6486 20.0613 25.1892 17.1229L25.2589 17.0428C25.2805 17.0173 25.2849 16.9803 25.2694 16.9508C25.2526 16.9211 25.2201 16.9049 25.1877 16.9093ZM25.9562 17.5532C25.9248 17.5414 25.8887 17.5494 25.8672 17.5754L25.7975 17.657C22.8352 21.0831 20.3454 24.8857 18.3972 28.9592L18.3512 29.0542C18.3364 29.0843 18.3421 29.1205 18.3645 29.1447C18.38 29.1606 18.4003 29.1696 18.4224 29.1699C18.4323 29.1703 18.445 29.1683 18.4551 29.1638L18.553 29.1222C20.2168 28.4329 21.9166 27.8357 23.6047 27.3479C23.7058 27.3185 23.7898 27.2484 23.8377 27.1549C24.5777 25.7127 26.2959 22.9207 26.2959 22.9207C26.3401 22.8578 26.3301 22.7634 26.3301 22.7634C26.3301 22.7634 26.0282 19.4241 26.0097 17.734L26.0081 17.6272C26.0066 17.5937 25.987 17.5644 25.9562 17.5532ZM21.5632 28.7678L21.4253 28.8152C20.5308 29.1125 19.2076 29.5693 18.0204 30.1149C17.9568 30.1448 17.915 30.2277 17.915 30.2277C17.8929 30.2786 17.8661 30.342 17.8349 30.4131L17.8304 30.422C17.6974 30.7247 17.5128 31.1803 17.4342 31.3657L17.3734 31.5125C17.3639 31.5357 17.3696 31.5617 17.3882 31.5793C17.3992 31.5897 17.4119 31.5949 17.4282 31.5956C17.4366 31.5956 17.4462 31.594 17.455 31.5895L17.5989 31.5213C17.9237 31.3668 18.3354 31.1327 18.7665 30.9279L18.7813 30.9203C19.6011 30.5314 20.5263 30.0924 21.0839 29.8268C21.0839 29.8268 21.1735 29.7784 21.2189 29.6889L21.6358 28.8521C21.6468 28.8303 21.6436 28.804 21.6282 28.7853C21.6112 28.7671 21.5864 28.7601 21.5632 28.7678Z" fill="#00C805"/>
<path d="M27.8612 12.3605C27.0014 12.3421 25.9792 12.5276 24.8212 12.9095C24.6475 12.9704 24.5103 13.0666 24.3866 13.1884C23.2088 14.294 22.0631 15.4661 20.9802 16.6778L20.8971 16.7698C20.8741 16.7959 20.8713 16.8347 20.8882 16.8648C20.9057 16.8952 20.9401 16.911 20.9742 16.9034L21.0959 16.8781C22.8412 16.5051 24.6032 16.2186 26.3316 16.0295C26.4454 16.017 26.5627 16.056 26.6476 16.1334C26.7324 16.2116 26.782 16.3231 26.7796 16.439C26.7511 18.1544 26.8123 19.8783 26.9651 21.5634L26.9754 21.6732C26.9794 21.7068 27.0025 21.734 27.0364 21.7429C27.0424 21.7444 27.048 21.746 27.0557 21.746C27.0812 21.7464 27.1068 21.7342 27.1224 21.7119L27.1862 21.6213C28.1599 20.2318 29.2201 18.8811 30.3345 17.6037C30.4592 17.4616 30.492 17.3722 30.5154 17.2432C30.8663 14.9977 30.3248 13.3371 29.8404 12.917C29.4197 12.5523 28.8092 12.3809 27.8612 12.3605ZM25.1877 16.9093L25.0809 16.9241C23.4135 17.1538 21.7255 17.4719 20.0633 17.8692C19.8985 17.9152 19.7928 18.0223 19.7695 18.0472C18.5256 19.5369 17.3474 21.1049 16.2667 22.7116C16.2127 22.793 16.2074 22.9876 16.2074 22.9876C16.2074 22.9876 16.4785 25.0806 16.875 26.6225C15.8925 29.4481 15.0161 33.1712 15.0161 33.1712C15.0092 33.1953 15.0138 33.2205 15.0279 33.2409C15.0427 33.2613 15.0662 33.2742 15.0917 33.275H15.651C15.6864 33.2755 15.7173 33.2541 15.7297 33.2215L15.7683 33.1163C16.3391 31.5594 16.9896 30.0223 17.7088 28.5245C17.8763 28.1755 18.2296 27.4711 18.2296 27.4711C18.2876 27.3568 18.5587 26.8369 18.6198 26.7204L18.6302 26.6996C20.4411 23.2836 22.6486 20.0613 25.1892 17.1229L25.2589 17.0428C25.2805 17.0173 25.2849 16.9803 25.2694 16.9508C25.2526 16.9211 25.2201 16.9049 25.1877 16.9093ZM25.9562 17.5532C25.9248 17.5414 25.8887 17.5494 25.8672 17.5754L25.7975 17.657C22.8352 21.0831 20.3454 24.8857 18.3972 28.9592L18.3512 29.0542C18.3364 29.0843 18.3421 29.1205 18.3645 29.1447C18.38 29.1606 18.4003 29.1696 18.4224 29.1699C18.4323 29.1703 18.445 29.1683 18.4551 29.1638L18.553 29.1222C20.2168 28.4329 21.9166 27.8357 23.6047 27.3479C23.7058 27.3185 23.7898 27.2484 23.8377 27.1549C24.5777 25.7127 26.2959 22.9207 26.2959 22.9207C26.3401 22.8578 26.3301 22.7634 26.3301 22.7634C26.3301 22.7634 26.0282 19.4241 26.0097 17.734L26.0081 17.6272C26.0066 17.5937 25.987 17.5644 25.9562 17.5532ZM21.5632 28.7678L21.4253 28.8152C20.5308 29.1125 19.2076 29.5693 18.0204 30.1149C17.9568 30.1448 17.915 30.2277 17.915 30.2277C17.8929 30.2786 17.8661 30.342 17.8349 30.4131L17.8304 30.422C17.6974 30.7247 17.5128 31.1803 17.4342 31.3657L17.3734 31.5125C17.3639 31.5357 17.3696 31.5617 17.3882 31.5793C17.3992 31.5897 17.4119 31.5949 17.4282 31.5956C17.4366 31.5956 17.4462 31.594 17.455 31.5895L17.5989 31.5213C17.9237 31.3668 18.3354 31.1327 18.7665 30.9279L18.7813 30.9203C19.6011 30.5314 20.5263 30.0924 21.0839 29.8268C21.0839 29.8268 21.1735 29.7784 21.2189 29.6889L21.6358 28.8521C21.6468 28.8303 21.6436 28.804 21.6282 28.7853C21.6112 28.7671 21.5864 28.7601 21.5632 28.7678Z" fill="white"/>
<defs>
<linearGradient id="paint0_linear_2_3298" x1="22.8171" y1="0" x2="22.8171" y2="45.6343" gradientUnits="userSpaceOnUse">
<stop stop-color="white"/>
<stop offset="0.0001" stop-color="white" stop-opacity="0"/>
<stop offset="1" stop-color="white" stop-opacity="0.11"/>
</linearGradient>
</defs>
</svg>
