<svg width="46" height="46" viewBox="0 0 46 46" fill="none" xmlns="http://www.w3.org/2000/svg">
<rect x="0.713036" y="0.713036" width="44.2082" height="44.2082" rx="22.1041" fill="url(#paint0_linear_2_3306)" fill-opacity="0.14"/>
<rect x="0.713036" y="0.713036" width="44.2082" height="44.2082" rx="22.1041" stroke="#252633" stroke-width="1.42607"/>
<mask id="mask0_2_3306" style="mask-type:luminance" maskUnits="userSpaceOnUse" x="12" y="15" width="22" height="15">
<path d="M33.2751 15.8757H12.3594V29.768H33.2751V15.8757Z" fill="white"/>
</mask>
<g mask="url(#mask0_2_3306)">
<path d="M14.6185 25.0404C14.6185 25.8404 14.7938 26.452 15.0229 26.823C15.145 27.0343 15.3209 27.2093 15.5325 27.3305C15.7442 27.4518 15.9842 27.5148 16.2282 27.5133C16.8173 27.5133 17.3563 27.3678 18.3949 25.9306C19.227 24.7792 20.2075 23.1666 20.8679 22.1484L21.9852 20.4318C22.7613 19.2397 23.658 17.9144 24.6894 17.0133C25.5295 16.283 26.4366 15.8757 27.3494 15.8757C28.8819 15.8757 30.3417 16.7638 31.459 18.4294C32.6816 20.2535 33.2773 22.5513 33.2773 24.9225C33.2773 26.332 32.9994 27.3678 32.5267 28.1861C32.0706 28.9775 31.1774 29.7681 29.6798 29.7681V27.5133C30.9621 27.5133 31.28 26.335 31.28 24.9865C31.28 23.0649 30.8319 20.9323 29.8449 19.4084C29.1445 18.3276 28.2368 17.6671 27.238 17.6671C26.158 17.6671 25.2888 18.4818 24.3119 19.9343C23.7926 20.706 23.2595 21.6465 22.6609 22.7077L22.0019 23.8714C20.6781 26.2186 20.3428 26.7532 19.6809 27.6355C18.5229 29.1862 17.5323 29.7681 16.2282 29.7681C14.6811 29.7681 13.7028 29.0981 13.1005 28.0886C12.6023 27.2661 12.3594 26.1865 12.3594 24.9567L14.6185 25.0404Z" fill="#0081FB"/>
<path d="M14.1401 18.5887C15.1759 16.9922 16.6706 15.8757 18.385 15.8757C19.3778 15.8757 20.3648 16.1666 21.3955 17.0111C22.5229 17.9312 23.7229 19.4463 25.2235 21.9433L25.761 22.8394C27.0586 25.001 27.7976 26.1124 28.229 26.6375C28.7847 27.311 29.1745 27.5104 29.6793 27.5104C30.9616 27.5104 31.2794 26.332 31.2794 24.9836L33.2724 24.921C33.2724 26.3306 32.9945 27.3663 32.5218 28.1847C32.0701 28.9775 31.1769 29.7681 29.6793 29.7681C28.7483 29.7681 27.9235 29.5659 27.0114 28.7055C26.3102 28.045 25.4904 26.8718 24.8598 25.8171L22.984 22.6837C22.0429 21.1111 21.1795 19.9387 20.6797 19.4106C20.1415 18.8367 19.4513 18.1472 18.3486 18.1472C17.4561 18.1472 16.6982 18.7734 16.064 19.7314L14.1401 18.5887Z" fill="url(#paint1_linear_2_3306)"/>
<path d="M18.3491 18.1472C17.4567 18.1472 16.6988 18.7734 16.0645 19.7314C15.1677 21.0849 14.6185 23.1012 14.6185 25.0404C14.6185 25.8404 14.7938 26.452 15.0229 26.823L13.0969 28.0886C12.6023 27.2661 12.3594 26.1865 12.3594 24.9567C12.3594 22.72 12.9733 20.3888 14.1407 18.5887C15.1764 16.9922 16.6711 15.8757 18.3855 15.8757L18.3491 18.1472Z" fill="url(#paint2_linear_2_3306)"/>
</g>
<mask id="mask1_2_3306" style="mask-type:luminance" maskUnits="userSpaceOnUse" x="12" y="15" width="22" height="15">
<path d="M33.2751 15.8757H12.3594V29.7681H33.2751V15.8757Z" fill="white"/>
</mask>
<g mask="url(#mask1_2_3306)">
<path d="M14.6185 25.0404C14.6185 25.8405 14.7938 26.4522 15.0229 26.8232C15.145 27.0343 15.3209 27.2094 15.5325 27.3306C15.7442 27.4519 15.9842 27.5149 16.2282 27.5134C16.8173 27.5134 17.3563 27.3679 18.3949 25.9307C19.227 24.7793 20.2075 23.1667 20.8679 22.1484L21.9852 20.4318C22.7613 19.2397 23.658 17.9145 24.6894 17.0133C25.5295 16.2831 26.4366 15.8757 27.3494 15.8757C28.8819 15.8757 30.3417 16.7638 31.459 18.4295C32.6816 20.2537 33.2773 22.5514 33.2773 24.9226C33.2773 26.3322 32.9994 27.3679 32.5267 28.1862C32.0706 28.9775 31.1774 29.7681 29.6798 29.7681V27.5134C30.9621 27.5134 31.28 26.335 31.28 24.9865C31.28 23.0649 30.8319 20.9322 29.8449 19.4085C29.1445 18.3276 28.2368 17.6672 27.238 17.6672C26.158 17.6672 25.2888 18.4818 24.3119 19.9344C23.7926 20.7061 23.2595 21.6465 22.6609 22.7077L22.0019 23.8716C20.6781 26.2187 20.3428 26.7532 19.6809 27.6356C18.5229 29.1862 17.5323 29.7681 16.2282 29.7681C14.6811 29.7681 13.7028 29.0983 13.1005 28.0887C12.6023 27.266 12.3594 26.1867 12.3594 24.9567L14.6185 25.0404Z" fill="white"/>
<path d="M14.1401 18.5887C15.1759 16.9922 16.6706 15.8757 18.385 15.8757C19.3778 15.8757 20.3648 16.1667 21.3955 17.0111C22.5229 17.9312 23.7229 19.4463 25.2235 21.9432L25.761 22.8394C27.0586 25.0011 27.7976 26.1125 28.229 26.6376C28.7847 27.3111 29.1745 27.5105 29.6793 27.5105C30.9616 27.5105 31.2794 26.3322 31.2794 24.9836L33.2724 24.9211C33.2724 26.3307 32.9945 27.3664 32.5218 28.1848C32.0701 28.9775 31.1769 29.7681 29.6793 29.7681C28.7483 29.7681 27.9235 29.566 27.0114 28.7054C26.3102 28.045 25.4904 26.8718 24.8598 25.8172L22.984 22.6838C22.0429 21.1112 21.1795 19.9387 20.6797 19.4107C20.1415 18.8368 19.4513 18.1473 18.3486 18.1473C17.4561 18.1473 16.6982 18.7735 16.064 19.7314L14.1401 18.5887Z" fill="white"/>
<path d="M18.3491 18.1473C17.4567 18.1473 16.6988 18.7735 16.0645 19.7314C15.1677 21.0851 14.6185 23.1012 14.6185 25.0404C14.6185 25.8405 14.7938 26.4522 15.0229 26.8232L13.0969 28.0887C12.6023 27.266 12.3594 26.1867 12.3594 24.9567C12.3594 22.7201 12.9733 20.389 14.1407 18.5888C15.1764 16.9922 16.6711 15.8757 18.3855 15.8757L18.3491 18.1473Z" fill="white"/>
</g>
<defs>
<linearGradient id="paint0_linear_2_3306" x1="22.8171" y1="0" x2="22.8171" y2="45.6343" gradientUnits="userSpaceOnUse">
<stop stop-color="white"/>
<stop offset="0.0001" stop-color="white" stop-opacity="0"/>
<stop offset="1" stop-color="white" stop-opacity="0.11"/>
</linearGradient>
<linearGradient id="paint1_linear_2_3306" x1="16.8932" y1="22.4619" x2="31.2947" y2="23.1892" gradientUnits="userSpaceOnUse">
<stop stop-color="#0064E1"/>
<stop offset="0.4" stop-color="#0064E1"/>
<stop offset="0.83" stop-color="#0073EE"/>
<stop offset="1" stop-color="#0082FB"/>
</linearGradient>
<linearGradient id="paint2_linear_2_3306" x1="15.3721" y1="25.9859" x2="15.3721" y2="20.6762" gradientUnits="userSpaceOnUse">
<stop stop-color="#0082FB"/>
<stop offset="1" stop-color="#0064E0"/>
</linearGradient>
</defs>
</svg>
