<svg width="16" height="16" viewBox="0 0 16 16" fill="none" xmlns="http://www.w3.org/2000/svg">
<g clip-path="url(#clip0_2_1803)">
<path d="M1.60218 15.1111C1.41729 15.1111 1.23714 15.04 1.09966 14.9025C0.91003 14.7129 0.84366 14.4284 0.928993 14.1724L2.19003 10.3893C1.80129 9.52651 1.60218 8.58311 1.60218 7.6397C1.60218 6.38814 1.95299 5.16029 2.61196 4.08889C3.27092 3.01748 4.21433 2.16414 5.33788 1.60474C6.26233 1.1354 7.30529 0.888885 8.34351 0.888885H8.71329C10.4105 0.9837 11.9749 1.68059 13.1459 2.85629C14.3216 4.032 15.0185 5.5917 15.1085 7.25096V7.64444C15.1085 8.69214 14.862 9.73511 14.3927 10.669C13.8333 11.7878 12.9705 12.7313 11.9038 13.3902C10.8371 14.0492 9.60929 14.4 8.35299 14.4H8.33403C7.39536 14.4 6.46144 14.1961 5.60336 13.8121L1.82025 15.0732C1.7444 15.0969 1.66855 15.1111 1.59744 15.1111H1.60218ZM8.34351 2.31111C7.52336 2.31111 6.70321 2.50548 5.97314 2.87526C5.08188 3.32089 4.33759 3.99881 3.8161 4.84266C3.29462 5.68651 3.01966 6.65363 3.01966 7.64444C3.01966 8.46933 3.21403 9.28948 3.58381 10.0243C3.66914 10.195 3.68336 10.3893 3.62173 10.5695L2.72099 13.2717L5.42322 12.371C5.60336 12.3093 5.79773 12.3236 5.9684 12.4089C6.70321 12.7787 7.52336 12.9636 8.34825 12.973C9.34381 12.973 10.3109 12.6981 11.1548 12.1766C11.9986 11.6551 12.6765 10.9108 13.1222 10.0243C13.4967 9.28948 13.6911 8.46459 13.6863 7.6397V7.28414C13.6152 6.01363 13.0653 4.78103 12.1361 3.85659C11.2069 2.9274 9.97907 2.37748 8.66588 2.30637H8.34825C8.34825 2.30637 8.33877 2.30637 8.33403 2.30637L8.34351 2.31111Z" fill="url(#paint0_linear_2_1803)"/>
<path d="M8.36474 10.9611C7.97126 10.9611 7.65363 10.6435 7.65363 10.25V7.40557C7.65363 7.01209 7.97126 6.69446 8.36474 6.69446C8.75822 6.69446 9.07585 7.01209 9.07585 7.40557V10.25C9.07585 10.6435 8.75822 10.9611 8.36474 10.9611Z" fill="url(#paint1_linear_2_1803)"/>
<path d="M8.36948 5.74687C7.976 5.74687 7.65363 5.42924 7.65363 5.03576C7.65363 4.64228 7.96651 4.32465 8.36 4.32465H8.36474C8.75822 4.32465 9.07585 4.64228 9.07585 5.03576C9.07585 5.42924 8.75822 5.74687 8.36474 5.74687H8.36948Z" fill="url(#paint2_linear_2_1803)"/>
</g>
<defs>
<linearGradient id="paint0_linear_2_1803" x1="8.00044" y1="0.888885" x2="8.00044" y2="15.1111" gradientUnits="userSpaceOnUse">
<stop stop-color="white" stop-opacity="0.32"/>
<stop offset="1" stop-color="white" stop-opacity="0.64"/>
</linearGradient>
<linearGradient id="paint1_linear_2_1803" x1="8.36474" y1="6.69446" x2="8.36474" y2="10.9611" gradientUnits="userSpaceOnUse">
<stop stop-color="white" stop-opacity="0.32"/>
<stop offset="1" stop-color="white" stop-opacity="0.64"/>
</linearGradient>
<linearGradient id="paint2_linear_2_1803" x1="8.36474" y1="4.32465" x2="8.36474" y2="5.74687" gradientUnits="userSpaceOnUse">
<stop stop-color="white" stop-opacity="0.32"/>
<stop offset="1" stop-color="white" stop-opacity="0.64"/>
</linearGradient>
<clipPath id="clip0_2_1803">
<rect width="16" height="16" fill="white"/>
</clipPath>
</defs>
</svg>
