<svg width="46" height="46" viewBox="0 0 46 46" fill="none" xmlns="http://www.w3.org/2000/svg">
<rect x="0.713036" y="0.713036" width="44.2082" height="44.2082" rx="22.1041" fill="url(#paint0_linear_2_3326)" fill-opacity="0.14"/>
<rect x="0.713036" y="0.713036" width="44.2082" height="44.2082" rx="22.1041" stroke="#252633" stroke-width="1.42607"/>
<path fill-rule="evenodd" clip-rule="evenodd" d="M33.2751 22.8171C33.2751 28.5929 28.593 33.275 22.8172 33.275C17.0415 33.275 12.3594 28.5929 12.3594 22.8171C12.3594 17.0414 17.0415 12.3593 22.8172 12.3593C28.593 12.3593 33.2751 17.0414 33.2751 22.8171ZM29.7393 23.2417C29.7769 23.1034 29.7947 22.9604 29.7926 22.8171C29.7819 22.5228 29.6862 22.2376 29.5171 21.9965C29.348 21.7553 29.1127 21.5681 28.8397 21.4576C28.5666 21.347 28.2675 21.3179 27.9782 21.3737C27.6889 21.4293 27.422 21.5674 27.2095 21.7714C26.9141 21.5706 26.6045 21.3912 26.2832 21.2349C25.6401 20.9215 24.9549 20.7026 24.2492 20.5849C23.8967 20.5261 23.5404 20.4926 23.1833 20.485L23.863 17.2222L26.101 17.6928C26.1559 18.2037 26.574 18.599 27.0872 18.6254C27.6001 18.6518 28.0566 18.3014 28.1636 17.7989C28.2707 17.2964 27.9967 16.7905 27.5175 16.6054C27.0383 16.4203 26.4955 16.6107 26.237 17.0549L23.6748 16.5424C23.6329 16.5333 23.5895 16.5325 23.5475 16.5401C23.5051 16.5479 23.4648 16.5639 23.4288 16.5871C23.3929 16.6104 23.3618 16.6407 23.3378 16.676C23.3135 16.7116 23.2965 16.7513 23.2878 16.7934L22.514 20.4223C22.1524 20.4278 21.7916 20.4594 21.4347 20.5172C21.0778 20.575 20.7254 20.6584 20.3806 20.7671C20.0357 20.8759 19.6992 21.0098 19.3737 21.1672C19.0483 21.3248 18.7347 21.5057 18.4354 21.7086C18.2742 21.557 18.0819 21.4422 17.8719 21.3721C17.6618 21.3022 17.4391 21.2787 17.2191 21.3034C16.9992 21.3279 16.7872 21.4 16.5979 21.5147C16.4086 21.6294 16.2465 21.7839 16.1229 21.9674C15.9992 22.1511 15.9168 22.3593 15.8816 22.5779C15.8464 22.7966 15.8592 23.0202 15.919 23.2334C15.9789 23.4464 16.0844 23.644 16.2282 23.8122C16.3719 23.9806 16.5506 24.1156 16.7517 24.208C16.7488 24.2462 16.7464 24.2846 16.7451 24.3231C16.742 24.3997 16.742 24.4765 16.7451 24.5531C16.7464 24.5916 16.7488 24.63 16.7517 24.6682C16.7517 27.0107 19.4812 28.9141 22.8486 28.9141C26.216 28.9141 28.9455 27.0107 28.9455 24.6682C28.9484 24.63 28.9508 24.5916 28.9521 24.5531C28.9552 24.4765 28.9552 24.3997 28.9521 24.3231C28.9508 24.2846 28.9484 24.2462 28.9455 24.208C29.0739 24.1442 29.1926 24.0627 29.2982 23.9657C29.4039 23.8687 29.4954 23.7573 29.5699 23.6349C29.6446 23.5126 29.7016 23.38 29.7393 23.2417ZM19.6412 24.6023C19.5439 24.5053 19.4671 24.39 19.4142 24.2632C19.3617 24.1361 19.3348 24.0002 19.3348 23.8629C19.3348 23.4399 19.5897 23.0587 19.9803 22.8966C20.3711 22.7348 20.8208 22.8245 21.1199 23.1236C21.419 23.4227 21.5087 23.8723 21.3469 24.2632C21.1848 24.6538 20.8036 24.9087 20.3806 24.9087C20.2432 24.9087 20.1072 24.8818 19.9803 24.8292C19.8535 24.7764 19.7382 24.6996 19.6412 24.6023ZM25.4892 26.5752C25.4882 26.6499 25.4576 26.7213 25.404 26.7736L25.4108 26.7388C25.227 26.8774 25.0317 26.9998 24.827 27.1049C24.4166 27.3152 23.9732 27.4534 23.5161 27.5135C23.2878 27.5433 23.0575 27.5535 22.8277 27.5441C22.5979 27.5535 22.3675 27.5433 22.1393 27.5135C21.9111 27.4834 21.686 27.434 21.4663 27.3655C21.2467 27.297 21.0331 27.21 20.8284 27.1049C20.6237 26.9998 20.4284 26.8774 20.2446 26.7388C20.2002 26.6847 20.1774 26.616 20.1808 26.5459C20.1842 26.4758 20.2137 26.4097 20.2632 26.36C20.3128 26.3106 20.379 26.281 20.4491 26.2776C20.5191 26.2742 20.5879 26.297 20.642 26.3414C20.7978 26.4557 20.9631 26.5566 21.1359 26.6429C21.3087 26.7292 21.4883 26.8008 21.6734 26.8567C21.8582 26.913 22.0475 26.9532 22.2392 26.977C22.4308 27.0011 22.6243 27.0089 22.8172 27.0003C23.0104 27.0107 23.2042 27.005 23.3966 26.9828C23.5888 26.9605 23.7788 26.9221 23.9645 26.868C24.1502 26.8137 24.3311 26.7438 24.5051 26.6591C24.6791 26.5744 24.8457 26.4752 25.0029 26.3624C25.0633 26.3171 25.1355 26.2881 25.2105 26.2891C25.2853 26.2902 25.3567 26.3208 25.409 26.3744C25.4612 26.428 25.4903 26.5001 25.4892 26.5752ZM25.6254 24.9121C25.4944 24.9665 25.3538 24.9939 25.2121 24.9924L25.2225 24.9505C24.7995 24.9505 24.4183 24.6956 24.2562 24.305C24.0944 23.9142 24.1841 23.4645 24.4832 23.1654C24.7823 22.8663 25.232 22.7766 25.6228 22.9385C26.0134 23.1005 26.2683 23.4817 26.2683 23.9048C26.2741 24.0465 26.2508 24.1878 26.2001 24.3202C26.1494 24.4528 26.0725 24.5735 25.9737 24.6752C25.8748 24.7769 25.7564 24.8575 25.6254 24.9121Z" fill="white"/>
<defs>
<linearGradient id="paint0_linear_2_3326" x1="22.8171" y1="0" x2="22.8171" y2="45.6343" gradientUnits="userSpaceOnUse">
<stop stop-color="white"/>
<stop offset="0.0001" stop-color="white" stop-opacity="0"/>
<stop offset="1" stop-color="white" stop-opacity="0.11"/>
</linearGradient>
</defs>
</svg>
