<svg width="52" height="49" viewBox="0 0 52 49" fill="none" xmlns="http://www.w3.org/2000/svg">
<path d="M51.511 1.88718C51.6023 1.79587 51.6023 1.64782 51.511 1.55651L50.0229 0.0684843C49.9316 -0.0228281 49.7836 -0.0228281 49.6923 0.0684843C49.601 0.159797 49.601 0.307844 49.6923 0.399157L51.015 1.72185L49.6923 3.04454C49.601 3.13585 49.601 3.2839 49.6923 3.37521C49.7836 3.46652 49.9316 3.46652 50.0229 3.37521L51.511 1.88718ZM5.28296 14.582L21.6504 14.582L21.6504 14.1143L5.28296 14.1143L5.28296 14.582ZM34.2767 1.95567L51.3456 1.95567L51.3456 1.48803L34.2767 1.48803L34.2767 1.95567ZM28.1974 8.03501C28.1974 4.67748 30.9192 1.95567 34.2767 1.95567L34.2767 1.48803C30.6609 1.48803 27.7297 4.41921 27.7297 8.03501L28.1974 8.03501ZM21.6504 14.582C25.2662 14.582 28.1974 11.6508 28.1974 8.03501L27.7297 8.03501C27.7297 11.3925 25.0079 14.1143 21.6504 14.1143L21.6504 14.582Z" fill="#E6DDFE" fill-opacity="0.25"/>
<path d="M2.71143 14.4455C2.71143 15.5058 3.55967 16.354 4.61997 16.354C5.68028 16.354 6.52852 15.5058 6.52852 14.4455C6.52852 13.3852 5.68028 12.5369 4.61997 12.5369C3.55967 12.5369 2.71143 13.3852 2.71143 14.4455Z" fill="#8CFF90"/>
<path d="M24.0176 46.9128C24.1089 47.0042 24.1089 47.1522 24.0176 47.2435L22.5296 48.7315C22.4383 48.8229 22.2902 48.8229 22.1989 48.7315C22.1076 48.6402 22.1076 48.4922 22.1989 48.4009L23.5216 47.0782L22.1989 45.7555C22.1076 45.6642 22.1076 45.5161 22.1989 45.4248C22.2902 45.3335 22.4383 45.3335 22.5296 45.4248L24.0176 46.9128ZM14.2583 22.9388V37.7253H13.7906V22.9388H14.2583ZM23.3773 46.8444H23.8523V47.312H23.3773V46.8444ZM14.2583 37.7253C14.2583 42.7616 18.341 46.8444 23.3773 46.8444V47.312C18.0827 47.312 13.7906 43.0199 13.7906 37.7253H14.2583ZM5.36657 14.0471C10.2773 14.0471 14.2583 18.028 14.2583 22.9388H13.7906C13.7906 18.2863 10.019 14.5147 5.36657 14.5147V14.0471Z" fill="url(#paint0_linear_2_3260)" fill-opacity="0.25"/>
<defs>
<linearGradient id="paint0_linear_2_3260" x1="14.6094" y1="14.2809" x2="14.6094" y2="47.0782" gradientUnits="userSpaceOnUse">
<stop stop-color="#E6DDFE"/>
<stop offset="1" stop-color="#E6DDFE" stop-opacity="0"/>
</linearGradient>
</defs>
</svg>
