<svg width="111" height="111" viewBox="0 0 111 111" fill="none" xmlns="http://www.w3.org/2000/svg">
<g filter="url(#filter0_ddi_2_860)">
<path d="M80.6175 9.422H29.5587C20.159 9.422 12.5391 17.0419 12.5391 26.4414V77.4997C12.5391 86.8992 20.159 94.5191 29.5587 94.5191H80.6175C90.0172 94.5191 97.6371 86.8992 97.6371 77.4997V26.4414C97.6371 17.0419 90.0172 9.422 80.6175 9.422Z" fill="#272729"/>
<path d="M80.6175 9.422H29.5587C20.159 9.422 12.5391 17.0419 12.5391 26.4414V77.4997C12.5391 86.8992 20.159 94.5191 29.5587 94.5191H80.6175C90.0172 94.5191 97.6371 86.8992 97.6371 77.4997V26.4414C97.6371 17.0419 90.0172 9.422 80.6175 9.422Z" fill="url(#paint0_linear_2_860)"/>
<path d="M80.6175 9.422H29.5587C20.159 9.422 12.5391 17.0419 12.5391 26.4414V77.4997C12.5391 86.8992 20.159 94.5191 29.5587 94.5191H80.6175C90.0172 94.5191 97.6371 86.8992 97.6371 77.4997V26.4414C97.6371 17.0419 90.0172 9.422 80.6175 9.422Z" fill="black" fill-opacity="0.1"/>
<path d="M80.6175 9.422H29.5587C20.159 9.422 12.5391 17.0419 12.5391 26.4414V77.4997C12.5391 86.8992 20.159 94.5191 29.5587 94.5191H80.6175C90.0172 94.5191 97.6371 86.8992 97.6371 77.4997V26.4414C97.6371 17.0419 90.0172 9.422 80.6175 9.422Z" fill="url(#paint1_radial_2_860)" fill-opacity="0.05"/>
<path d="M80.6176 10.1311H29.5587C20.5507 10.1311 13.2483 17.4335 13.2483 26.4414V77.4997C13.2483 86.5076 20.5507 93.81 29.5587 93.81H80.6176C89.6256 93.81 96.928 86.5076 96.928 77.4997V26.4414C96.928 17.4335 89.6256 10.1311 80.6176 10.1311Z" stroke="url(#paint2_radial_2_860)" stroke-opacity="0.3" stroke-width="1.55864"/>
<g filter="url(#filter1_i_2_860)">
<path d="M39.0637 58.9215C38.4255 58.2833 38.0667 57.4181 38.0667 56.5147C38.0667 55.6112 38.4255 54.7461 39.0637 54.1078C39.702 53.4696 40.5685 53.1108 41.4706 53.1108H44.8745V56.5147C44.8745 57.4181 44.5157 58.2833 43.8774 58.9215C43.2392 59.5597 42.374 59.9186 41.4706 59.9186C40.5685 59.9186 39.702 59.5597 39.0637 58.9215Z" fill="white"/>
<path d="M39.0637 58.9215C38.4255 58.2833 38.0667 57.4181 38.0667 56.5147C38.0667 55.6112 38.4255 54.7461 39.0637 54.1078C39.702 53.4696 40.5685 53.1108 41.4706 53.1108H44.8745V56.5147C44.8745 57.4181 44.5157 58.2833 43.8774 58.9215C43.2392 59.5597 42.374 59.9186 41.4706 59.9186C40.5685 59.9186 39.702 59.5597 39.0637 58.9215Z" fill="url(#paint3_linear_2_860)"/>
<path d="M48.1523 54.1078C48.7905 53.4696 49.6571 53.1108 50.5592 53.1108C51.4626 53.1108 52.3278 53.4696 52.966 54.1078C53.6043 54.7461 53.9631 55.6112 53.9631 56.5147V65.586C53.9631 66.4895 53.6043 67.3546 52.966 67.9928C52.3278 68.6311 51.4626 68.9899 50.5592 68.9899C49.6571 68.9899 48.7905 68.6311 48.1523 67.9928C47.5141 67.3546 47.1553 66.4895 47.1553 65.586V56.5147C47.1553 55.6112 47.5141 54.7461 48.1523 54.1078Z" fill="white"/>
<path d="M48.1523 54.1078C48.7905 53.4696 49.6571 53.1108 50.5592 53.1108C51.4626 53.1108 52.3278 53.4696 52.966 54.1078C53.6043 54.7461 53.9631 55.6112 53.9631 56.5147V65.586C53.9631 66.4895 53.6043 67.3546 52.966 67.9928C52.3278 68.6311 51.4626 68.9899 50.5592 68.9899C49.6571 68.9899 48.7905 68.6311 48.1523 67.9928C47.5141 67.3546 47.1553 66.4895 47.1553 65.586V56.5147C47.1553 55.6112 47.5141 54.7461 48.1523 54.1078Z" fill="url(#paint4_linear_2_860)"/>
<path d="M41.4706 44.0224H50.5591C51.4625 44.0224 52.3277 44.3812 52.9659 45.0194C53.6041 45.6577 53.963 46.5228 53.963 47.4263C53.963 48.3297 53.6041 49.1949 52.9659 49.8331C52.3277 50.4713 51.4625 50.8301 50.5591 50.8301H41.4706C40.5685 50.8301 39.702 50.4713 39.0637 49.8331C38.4255 49.1949 38.0667 48.3297 38.0667 47.4263C38.0667 46.5228 38.4255 45.6577 39.0637 45.0194C39.702 44.3812 40.5685 44.0224 41.4706 44.0224Z" fill="white"/>
<path d="M41.4706 44.0224H50.5591C51.4625 44.0224 52.3277 44.3812 52.9659 45.0194C53.6041 45.6577 53.963 46.5228 53.963 47.4263C53.963 48.3297 53.6041 49.1949 52.9659 49.8331C52.3277 50.4713 51.4625 50.8301 50.5591 50.8301H41.4706C40.5685 50.8301 39.702 50.4713 39.0637 49.8331C38.4255 49.1949 38.0667 48.3297 38.0667 47.4263C38.0667 46.5228 38.4255 45.6577 39.0637 45.0194C39.702 44.3812 40.5685 44.0224 41.4706 44.0224Z" fill="url(#paint5_linear_2_860)"/>
<path d="M48.1523 35.9481C48.7905 35.3099 49.6571 34.951 50.5592 34.951C51.4626 34.951 52.3278 35.3099 52.966 35.9481C53.6043 36.5863 53.9631 37.4515 53.9631 38.3549V41.7588H50.5592C49.6571 41.7588 48.7905 41.4 48.1523 40.7618C47.5141 40.1235 47.1553 39.2584 47.1553 38.3549C47.1553 37.4515 47.5141 36.5863 48.1523 35.9481Z" fill="white"/>
<path d="M48.1523 35.9481C48.7905 35.3099 49.6571 34.951 50.5592 34.951C51.4626 34.951 52.3278 35.3099 52.966 35.9481C53.6043 36.5863 53.9631 37.4515 53.9631 38.3549V41.7588H50.5592C49.6571 41.7588 48.7905 41.4 48.1523 40.7618C47.5141 40.1235 47.1553 39.2584 47.1553 38.3549C47.1553 37.4515 47.5141 36.5863 48.1523 35.9481Z" fill="url(#paint6_linear_2_860)"/>
<path d="M61.9892 49.8331C61.351 50.4713 60.4844 50.8302 59.5824 50.8302H59.6164C59.1668 50.8344 58.72 50.7493 58.3031 50.5806C57.8861 50.4118 57.5074 50.1622 57.1869 49.8459C56.8678 49.5282 56.6139 49.1523 56.4408 48.7368C56.2678 48.3212 56.1785 47.8759 56.1785 47.4263V38.3549C56.1785 37.4515 56.5373 36.5863 57.1755 35.9481C57.8137 35.3099 58.6789 34.951 59.5824 34.951C60.4844 34.951 61.351 35.3099 61.9892 35.9481C62.6275 36.5863 62.9863 37.4515 62.9863 38.3549V47.4263C62.9863 48.3297 62.6275 49.1949 61.9892 49.8331Z" fill="white"/>
<path d="M61.9892 49.8331C61.351 50.4713 60.4844 50.8302 59.5824 50.8302H59.6164C59.1668 50.8344 58.72 50.7493 58.3031 50.5806C57.8861 50.4118 57.5074 50.1622 57.1869 49.8459C56.8678 49.5282 56.6139 49.1523 56.4408 48.7368C56.2678 48.3212 56.1785 47.8759 56.1785 47.4263V38.3549C56.1785 37.4515 56.5373 36.5863 57.1755 35.9481C57.8137 35.3099 58.6789 34.951 59.5824 34.951C60.4844 34.951 61.351 35.3099 61.9892 35.9481C62.6275 36.5863 62.9863 37.4515 62.9863 38.3549V47.4263C62.9863 48.3297 62.6275 49.1949 61.9892 49.8331Z" fill="url(#paint7_linear_2_860)"/>
<path d="M71.0437 45.0194C71.6819 45.6577 72.0407 46.5228 72.0407 47.4263H72.1088C72.1088 47.8787 72.018 48.3269 71.8436 48.7453C71.6677 49.1622 71.411 49.5409 71.0876 49.8572C70.7643 50.1749 70.3813 50.4245 69.9601 50.5904C69.5388 50.7578 69.0893 50.8387 68.6368 50.8301H65.2329V47.4263C65.2329 46.5228 65.5917 45.6577 66.2299 45.0194C66.8682 44.3812 67.7334 44.0224 68.6368 44.0224C69.5389 44.0224 70.4054 44.3812 71.0437 45.0194Z" fill="white"/>
<path d="M71.0437 45.0194C71.6819 45.6577 72.0407 46.5228 72.0407 47.4263H72.1088C72.1088 47.8787 72.018 48.3269 71.8436 48.7453C71.6677 49.1622 71.411 49.5409 71.0876 49.8572C70.7643 50.1749 70.3813 50.4245 69.9601 50.5904C69.5388 50.7578 69.0893 50.8387 68.6368 50.8301H65.2329V47.4263C65.2329 46.5228 65.5917 45.6577 66.2299 45.0194C66.8682 44.3812 67.7334 44.0224 68.6368 44.0224C69.5389 44.0224 70.4054 44.3812 71.0437 45.0194Z" fill="url(#paint8_linear_2_860)"/>
<path d="M59.6149 62.1821H56.2109V65.586C56.2109 66.2597 56.4109 66.9178 56.7853 67.4766C57.1584 68.0368 57.6902 68.4736 58.3129 68.7304C58.9341 68.9885 59.6191 69.0566 60.2786 68.9246C60.9396 68.7927 61.5466 68.4694 62.0217 67.9928C62.4983 67.5163 62.8231 66.9107 62.9535 66.2498C63.0854 65.5903 63.0174 64.9052 62.7607 64.284C62.5025 63.6614 62.0657 63.1295 61.5069 62.7551C60.9467 62.3821 60.2885 62.1821 59.6149 62.1821ZM68.7033 53.1108H59.6149C58.7128 53.1108 57.8462 53.4696 57.208 54.1078C56.5698 54.7461 56.2109 55.6112 56.2109 56.5147C56.2109 57.4181 56.5698 58.2833 57.208 58.9215C57.8462 59.5597 58.7128 59.9186 59.6149 59.9186H68.7033C69.6068 59.9186 70.472 59.5597 71.1102 58.9215C71.7484 58.2833 72.1073 57.4181 72.1073 56.5147C72.1073 55.6112 71.7484 54.7461 71.1102 54.1078C70.472 53.4696 69.6068 53.1108 68.7033 53.1108Z" fill="white"/>
<path d="M59.6149 62.1821H56.2109V65.586C56.2109 66.2597 56.4109 66.9178 56.7853 67.4766C57.1584 68.0368 57.6902 68.4736 58.3129 68.7304C58.9341 68.9885 59.6191 69.0566 60.2786 68.9246C60.9396 68.7927 61.5466 68.4694 62.0217 67.9928C62.4983 67.5163 62.8231 66.9107 62.9535 66.2498C63.0854 65.5903 63.0174 64.9052 62.7607 64.284C62.5025 63.6614 62.0657 63.1295 61.5069 62.7551C60.9467 62.3821 60.2885 62.1821 59.6149 62.1821ZM68.7033 53.1108H59.6149C58.7128 53.1108 57.8462 53.4696 57.208 54.1078C56.5698 54.7461 56.2109 55.6112 56.2109 56.5147C56.2109 57.4181 56.5698 58.2833 57.208 58.9215C57.8462 59.5597 58.7128 59.9186 59.6149 59.9186H68.7033C69.6068 59.9186 70.472 59.5597 71.1102 58.9215C71.7484 58.2833 72.1073 57.4181 72.1073 56.5147C72.1073 55.6112 71.7484 54.7461 71.1102 54.1078C70.472 53.4696 69.6068 53.1108 68.7033 53.1108Z" fill="url(#paint9_linear_2_860)"/>
</g>
</g>
<defs>
<filter id="filter0_ddi_2_860" x="-0.000106812" y="-3.8147e-06" width="110.176" height="110.176" filterUnits="userSpaceOnUse" color-interpolation-filters="sRGB">
<feFlood flood-opacity="0" result="BackgroundImageFix"/>
<feColorMatrix in="SourceAlpha" type="matrix" values="0 0 0 0 0 0 0 0 0 0 0 0 0 0 0 0 0 0 127 0" result="hardAlpha"/>
<feOffset dy="3.11728"/>
<feGaussianBlur stdDeviation="6.23455"/>
<feColorMatrix type="matrix" values="0 0 0 0 0 0 0 0 0 0 0 0 0 0 0 0 0 0 0.2 0"/>
<feBlend mode="normal" in2="BackgroundImageFix" result="effect1_dropShadow_2_860"/>
<feColorMatrix in="SourceAlpha" type="matrix" values="0 0 0 0 0 0 0 0 0 0 0 0 0 0 0 0 0 0 127 0" result="hardAlpha"/>
<feOffset dy="1.55864"/>
<feGaussianBlur stdDeviation="0.779319"/>
<feColorMatrix type="matrix" values="0 0 0 0 0 0 0 0 0 0 0 0 0 0 0 0 0 0 0.1 0"/>
<feBlend mode="normal" in2="effect1_dropShadow_2_860" result="effect2_dropShadow_2_860"/>
<feBlend mode="normal" in="SourceGraphic" in2="effect2_dropShadow_2_860" result="shape"/>
<feColorMatrix in="SourceAlpha" type="matrix" values="0 0 0 0 0 0 0 0 0 0 0 0 0 0 0 0 0 0 127 0" result="hardAlpha"/>
<feOffset/>
<feGaussianBlur stdDeviation="3.11728"/>
<feComposite in2="hardAlpha" operator="arithmetic" k2="-1" k3="1"/>
<feColorMatrix type="matrix" values="0 0 0 0 1 0 0 0 0 1 0 0 0 0 1 0 0 0 0.1 0"/>
<feBlend mode="normal" in2="shape" result="effect3_innerShadow_2_860"/>
</filter>
<filter id="filter1_i_2_860" x="38.0667" y="34.1717" width="34.0422" height="34.8185" filterUnits="userSpaceOnUse" color-interpolation-filters="sRGB">
<feFlood flood-opacity="0" result="BackgroundImageFix"/>
<feBlend mode="normal" in="SourceGraphic" in2="BackgroundImageFix" result="shape"/>
<feColorMatrix in="SourceAlpha" type="matrix" values="0 0 0 0 0 0 0 0 0 0 0 0 0 0 0 0 0 0 127 0" result="hardAlpha"/>
<feOffset dy="-0.779319"/>
<feGaussianBlur stdDeviation="0.779319"/>
<feComposite in2="hardAlpha" operator="arithmetic" k2="-1" k3="1"/>
<feColorMatrix type="matrix" values="0 0 0 0 0 0 0 0 0 0 0 0 0 0 0 0 0 0 0.45 0"/>
<feBlend mode="normal" in2="shape" result="effect1_innerShadow_2_860"/>
</filter>
<linearGradient id="paint0_linear_2_860" x1="55.0881" y1="34.9511" x2="55.0881" y2="94.5191" gradientUnits="userSpaceOnUse">
<stop stop-color="#1F1F21"/>
<stop offset="1" stop-color="#202022"/>
</linearGradient>
<radialGradient id="paint1_radial_2_860" cx="0" cy="0" r="1" gradientTransform="matrix(48.2222 15.6011 -18.9378 58.5343 -1.64394 40.6243)" gradientUnits="userSpaceOnUse">
<stop stop-color="#24FF95"/>
<stop offset="1" stop-color="#24FF95" stop-opacity="0"/>
</radialGradient>
<radialGradient id="paint2_radial_2_860" cx="0" cy="0" r="1" gradientTransform="matrix(46.8039 8.50967 -6.55851 36.0716 6.15679 44.8791)" gradientUnits="userSpaceOnUse">
<stop stop-color="#A8FFD5"/>
<stop offset="1" stop-color="#BDFFDF" stop-opacity="0"/>
</radialGradient>
<linearGradient id="paint3_linear_2_860" x1="55.0877" y1="34.951" x2="55.0877" y2="68.9899" gradientUnits="userSpaceOnUse">
<stop stop-color="white"/>
<stop offset="1" stop-color="#BABABA"/>
</linearGradient>
<linearGradient id="paint4_linear_2_860" x1="55.0878" y1="34.9511" x2="55.0878" y2="68.9899" gradientUnits="userSpaceOnUse">
<stop stop-color="white"/>
<stop offset="1" stop-color="#BABABA"/>
</linearGradient>
<linearGradient id="paint5_linear_2_860" x1="55.0877" y1="34.951" x2="55.0877" y2="68.9899" gradientUnits="userSpaceOnUse">
<stop stop-color="white"/>
<stop offset="1" stop-color="#BABABA"/>
</linearGradient>
<linearGradient id="paint6_linear_2_860" x1="55.0878" y1="34.951" x2="55.0878" y2="68.9899" gradientUnits="userSpaceOnUse">
<stop stop-color="white"/>
<stop offset="1" stop-color="#BABABA"/>
</linearGradient>
<linearGradient id="paint7_linear_2_860" x1="55.0878" y1="34.951" x2="55.0878" y2="68.9899" gradientUnits="userSpaceOnUse">
<stop stop-color="white"/>
<stop offset="1" stop-color="#BABABA"/>
</linearGradient>
<linearGradient id="paint8_linear_2_860" x1="55.0878" y1="34.951" x2="55.0878" y2="68.9899" gradientUnits="userSpaceOnUse">
<stop stop-color="white"/>
<stop offset="1" stop-color="#BABABA"/>
</linearGradient>
<linearGradient id="paint9_linear_2_860" x1="55.0876" y1="34.9511" x2="55.0876" y2="68.9899" gradientUnits="userSpaceOnUse">
<stop stop-color="white"/>
<stop offset="1" stop-color="#BABABA"/>
</linearGradient>
</defs>
</svg>
