<svg width="111" height="111" viewBox="0 0 111 111" fill="none" xmlns="http://www.w3.org/2000/svg">
<g filter="url(#filter0_ddi_2_1767)">
<path d="M80.6177 9.422H29.5589C20.1592 9.422 12.5393 17.0419 12.5393 26.4414V77.4997C12.5393 86.8992 20.1592 94.5191 29.5589 94.5191H80.6177C90.0174 94.5191 97.6373 86.8992 97.6373 77.4997V26.4414C97.6373 17.0419 90.0174 9.422 80.6177 9.422Z" fill="#272729"/>
<path d="M80.6177 9.422H29.5589C20.1592 9.422 12.5393 17.0419 12.5393 26.4414V77.4997C12.5393 86.8992 20.1592 94.5191 29.5589 94.5191H80.6177C90.0174 94.5191 97.6373 86.8992 97.6373 77.4997V26.4414C97.6373 17.0419 90.0174 9.422 80.6177 9.422Z" fill="url(#paint0_linear_2_1767)"/>
<path d="M80.6177 9.422H29.5589C20.1592 9.422 12.5393 17.0419 12.5393 26.4414V77.4997C12.5393 86.8992 20.1592 94.5191 29.5589 94.5191H80.6177C90.0174 94.5191 97.6373 86.8992 97.6373 77.4997V26.4414C97.6373 17.0419 90.0174 9.422 80.6177 9.422Z" fill="black" fill-opacity="0.1"/>
<path d="M80.6177 9.422H29.5589C20.1592 9.422 12.5393 17.0419 12.5393 26.4414V77.4997C12.5393 86.8992 20.1592 94.5191 29.5589 94.5191H80.6177C90.0174 94.5191 97.6373 86.8992 97.6373 77.4997V26.4414C97.6373 17.0419 90.0174 9.422 80.6177 9.422Z" fill="url(#paint1_radial_2_1767)" fill-opacity="0.05"/>
<path d="M80.6177 10.1311H29.5589C20.5509 10.1311 13.2484 17.4335 13.2484 26.4414V77.4997C13.2484 86.5076 20.5509 93.81 29.5589 93.81H80.6177C89.6257 93.81 96.9281 86.5076 96.9281 77.4997V26.4414C96.9281 17.4335 89.6257 10.1311 80.6177 10.1311Z" stroke="url(#paint2_radial_2_1767)" stroke-opacity="0.3" stroke-width="1.55864"/>
<g filter="url(#filter1_i_2_1767)">
<path d="M39.0639 58.9215C38.4257 58.2833 38.0668 57.4181 38.0668 56.5147C38.0668 55.6112 38.4257 54.7461 39.0639 54.1078C39.7021 53.4696 40.5687 53.1108 41.4707 53.1108H44.8747V56.5147C44.8747 57.4181 44.5159 58.2833 43.8776 58.9215C43.2394 59.5597 42.3742 59.9186 41.4707 59.9186C40.5687 59.9186 39.7021 59.5597 39.0639 58.9215Z" fill="white"/>
<path d="M39.0639 58.9215C38.4257 58.2833 38.0668 57.4181 38.0668 56.5147C38.0668 55.6112 38.4257 54.7461 39.0639 54.1078C39.7021 53.4696 40.5687 53.1108 41.4707 53.1108H44.8747V56.5147C44.8747 57.4181 44.5159 58.2833 43.8776 58.9215C43.2394 59.5597 42.3742 59.9186 41.4707 59.9186C40.5687 59.9186 39.7021 59.5597 39.0639 58.9215Z" fill="url(#paint3_linear_2_1767)"/>
<path d="M48.1524 54.1078C48.7906 53.4696 49.6572 53.1108 50.5592 53.1108C51.4627 53.1108 52.3279 53.4696 52.9661 54.1078C53.6043 54.7461 53.9632 55.6112 53.9632 56.5147V65.586C53.9632 66.4895 53.6043 67.3546 52.9661 67.9928C52.3279 68.6311 51.4627 68.9899 50.5592 68.9899C49.6572 68.9899 48.7906 68.6311 48.1524 67.9928C47.5141 67.3546 47.1553 66.4895 47.1553 65.586V56.5147C47.1553 55.6112 47.5141 54.7461 48.1524 54.1078Z" fill="white"/>
<path d="M48.1524 54.1078C48.7906 53.4696 49.6572 53.1108 50.5592 53.1108C51.4627 53.1108 52.3279 53.4696 52.9661 54.1078C53.6043 54.7461 53.9632 55.6112 53.9632 56.5147V65.586C53.9632 66.4895 53.6043 67.3546 52.9661 67.9928C52.3279 68.6311 51.4627 68.9899 50.5592 68.9899C49.6572 68.9899 48.7906 68.6311 48.1524 67.9928C47.5141 67.3546 47.1553 66.4895 47.1553 65.586V56.5147C47.1553 55.6112 47.5141 54.7461 48.1524 54.1078Z" fill="url(#paint4_linear_2_1767)"/>
<path d="M41.4707 44.0224H50.5592C51.4627 44.0224 52.3279 44.3812 52.9661 45.0194C53.6043 45.6577 53.9632 46.5228 53.9632 47.4263C53.9632 48.3297 53.6043 49.1949 52.9661 49.8331C52.3279 50.4713 51.4627 50.8301 50.5592 50.8301H41.4707C40.5687 50.8301 39.7021 50.4713 39.0639 49.8331C38.4257 49.1949 38.0668 48.3297 38.0668 47.4263C38.0668 46.5228 38.4257 45.6577 39.0639 45.0194C39.7021 44.3812 40.5687 44.0224 41.4707 44.0224Z" fill="white"/>
<path d="M41.4707 44.0224H50.5592C51.4627 44.0224 52.3279 44.3812 52.9661 45.0194C53.6043 45.6577 53.9632 46.5228 53.9632 47.4263C53.9632 48.3297 53.6043 49.1949 52.9661 49.8331C52.3279 50.4713 51.4627 50.8301 50.5592 50.8301H41.4707C40.5687 50.8301 39.7021 50.4713 39.0639 49.8331C38.4257 49.1949 38.0668 48.3297 38.0668 47.4263C38.0668 46.5228 38.4257 45.6577 39.0639 45.0194C39.7021 44.3812 40.5687 44.0224 41.4707 44.0224Z" fill="url(#paint5_linear_2_1767)"/>
<path d="M48.1524 35.9481C48.7906 35.3099 49.6572 34.951 50.5592 34.951C51.4627 34.951 52.3279 35.3099 52.9661 35.9481C53.6043 36.5863 53.9632 37.4515 53.9632 38.3549V41.7588H50.5592C49.6572 41.7588 48.7906 41.4 48.1524 40.7618C47.5141 40.1235 47.1553 39.2584 47.1553 38.3549C47.1553 37.4515 47.5141 36.5863 48.1524 35.9481Z" fill="white"/>
<path d="M48.1524 35.9481C48.7906 35.3099 49.6572 34.951 50.5592 34.951C51.4627 34.951 52.3279 35.3099 52.9661 35.9481C53.6043 36.5863 53.9632 37.4515 53.9632 38.3549V41.7588H50.5592C49.6572 41.7588 48.7906 41.4 48.1524 40.7618C47.5141 40.1235 47.1553 39.2584 47.1553 38.3549C47.1553 37.4515 47.5141 36.5863 48.1524 35.9481Z" fill="url(#paint6_linear_2_1767)"/>
<path d="M61.9893 49.8331C61.3511 50.4713 60.4845 50.8302 59.5825 50.8302H59.6165C59.1669 50.8344 58.7202 50.7493 58.3032 50.5806C57.8862 50.4118 57.5075 50.1622 57.187 49.8459C56.8679 49.5282 56.614 49.1523 56.441 48.7368C56.2679 48.3212 56.1786 47.8759 56.1786 47.4263V38.3549C56.1786 37.4515 56.5374 36.5863 57.1756 35.9481C57.8139 35.3099 58.679 34.951 59.5825 34.951C60.4845 34.951 61.3511 35.3099 61.9893 35.9481C62.6276 36.5863 62.9864 37.4515 62.9864 38.3549V47.4263C62.9864 48.3297 62.6276 49.1949 61.9893 49.8331Z" fill="white"/>
<path d="M61.9893 49.8331C61.3511 50.4713 60.4845 50.8302 59.5825 50.8302H59.6165C59.1669 50.8344 58.7202 50.7493 58.3032 50.5806C57.8862 50.4118 57.5075 50.1622 57.187 49.8459C56.8679 49.5282 56.614 49.1523 56.441 48.7368C56.2679 48.3212 56.1786 47.8759 56.1786 47.4263V38.3549C56.1786 37.4515 56.5374 36.5863 57.1756 35.9481C57.8139 35.3099 58.679 34.951 59.5825 34.951C60.4845 34.951 61.3511 35.3099 61.9893 35.9481C62.6276 36.5863 62.9864 37.4515 62.9864 38.3549V47.4263C62.9864 48.3297 62.6276 49.1949 61.9893 49.8331Z" fill="url(#paint7_linear_2_1767)"/>
<path d="M71.0437 45.0194C71.682 45.6577 72.0408 46.5228 72.0408 47.4263H72.1089C72.1089 47.8787 72.0181 48.3269 71.8436 48.7453C71.6678 49.1622 71.4111 49.5409 71.0877 49.8572C70.7643 50.1749 70.3814 50.4245 69.9601 50.5904C69.5389 50.7578 69.0893 50.8387 68.6369 50.8301H65.233V47.4263C65.233 46.5228 65.5918 45.6577 66.23 45.0194C66.8682 44.3812 67.7334 44.0224 68.6369 44.0224C69.5389 44.0224 70.4055 44.3812 71.0437 45.0194Z" fill="white"/>
<path d="M71.0437 45.0194C71.682 45.6577 72.0408 46.5228 72.0408 47.4263H72.1089C72.1089 47.8787 72.0181 48.3269 71.8436 48.7453C71.6678 49.1622 71.4111 49.5409 71.0877 49.8572C70.7643 50.1749 70.3814 50.4245 69.9601 50.5904C69.5389 50.7578 69.0893 50.8387 68.6369 50.8301H65.233V47.4263C65.233 46.5228 65.5918 45.6577 66.23 45.0194C66.8682 44.3812 67.7334 44.0224 68.6369 44.0224C69.5389 44.0224 70.4055 44.3812 71.0437 45.0194Z" fill="url(#paint8_linear_2_1767)"/>
<path d="M59.615 62.1821H56.2111V65.586C56.2111 66.2597 56.4111 66.9178 56.7855 67.4766C57.1585 68.0368 57.6904 68.4736 58.313 68.7304C58.9342 68.9885 59.6193 69.0566 60.2788 68.9246C60.9398 68.7927 61.5468 68.4694 62.0219 67.9928C62.4985 67.5163 62.8232 66.9107 62.9537 66.2498C63.0856 65.5903 63.0176 64.9052 62.7608 64.284C62.5027 63.6614 62.0659 63.1295 61.5071 62.7551C60.9468 62.3821 60.2887 62.1821 59.615 62.1821ZM68.7035 53.1108H59.615C58.713 53.1108 57.8464 53.4696 57.2082 54.1078C56.57 54.7461 56.2111 55.6112 56.2111 56.5147C56.2111 57.4181 56.57 58.2833 57.2082 58.9215C57.8464 59.5597 58.713 59.9186 59.615 59.9186H68.7035C69.607 59.9186 70.4721 59.5597 71.1104 58.9215C71.7486 58.2833 72.1074 57.4181 72.1074 56.5147C72.1074 55.6112 71.7486 54.7461 71.1104 54.1078C70.4721 53.4696 69.607 53.1108 68.7035 53.1108Z" fill="white"/>
<path d="M59.615 62.1821H56.2111V65.586C56.2111 66.2597 56.4111 66.9178 56.7855 67.4766C57.1585 68.0368 57.6904 68.4736 58.313 68.7304C58.9342 68.9885 59.6193 69.0566 60.2788 68.9246C60.9398 68.7927 61.5468 68.4694 62.0219 67.9928C62.4985 67.5163 62.8232 66.9107 62.9537 66.2498C63.0856 65.5903 63.0176 64.9052 62.7608 64.284C62.5027 63.6614 62.0659 63.1295 61.5071 62.7551C60.9468 62.3821 60.2887 62.1821 59.615 62.1821ZM68.7035 53.1108H59.615C58.713 53.1108 57.8464 53.4696 57.2082 54.1078C56.57 54.7461 56.2111 55.6112 56.2111 56.5147C56.2111 57.4181 56.57 58.2833 57.2082 58.9215C57.8464 59.5597 58.713 59.9186 59.615 59.9186H68.7035C69.607 59.9186 70.4721 59.5597 71.1104 58.9215C71.7486 58.2833 72.1074 57.4181 72.1074 56.5147C72.1074 55.6112 71.7486 54.7461 71.1104 54.1078C70.4721 53.4696 69.607 53.1108 68.7035 53.1108Z" fill="url(#paint9_linear_2_1767)"/>
</g>
</g>
<defs>
<filter id="filter0_ddi_2_1767" x="1.52588e-05" y="-3.8147e-06" width="110.177" height="110.176" filterUnits="userSpaceOnUse" color-interpolation-filters="sRGB">
<feFlood flood-opacity="0" result="BackgroundImageFix"/>
<feColorMatrix in="SourceAlpha" type="matrix" values="0 0 0 0 0 0 0 0 0 0 0 0 0 0 0 0 0 0 127 0" result="hardAlpha"/>
<feOffset dy="3.11728"/>
<feGaussianBlur stdDeviation="6.23455"/>
<feColorMatrix type="matrix" values="0 0 0 0 0 0 0 0 0 0 0 0 0 0 0 0 0 0 0.2 0"/>
<feBlend mode="normal" in2="BackgroundImageFix" result="effect1_dropShadow_2_1767"/>
<feColorMatrix in="SourceAlpha" type="matrix" values="0 0 0 0 0 0 0 0 0 0 0 0 0 0 0 0 0 0 127 0" result="hardAlpha"/>
<feOffset dy="1.55864"/>
<feGaussianBlur stdDeviation="0.779319"/>
<feColorMatrix type="matrix" values="0 0 0 0 0 0 0 0 0 0 0 0 0 0 0 0 0 0 0.1 0"/>
<feBlend mode="normal" in2="effect1_dropShadow_2_1767" result="effect2_dropShadow_2_1767"/>
<feBlend mode="normal" in="SourceGraphic" in2="effect2_dropShadow_2_1767" result="shape"/>
<feColorMatrix in="SourceAlpha" type="matrix" values="0 0 0 0 0 0 0 0 0 0 0 0 0 0 0 0 0 0 127 0" result="hardAlpha"/>
<feOffset/>
<feGaussianBlur stdDeviation="3.11728"/>
<feComposite in2="hardAlpha" operator="arithmetic" k2="-1" k3="1"/>
<feColorMatrix type="matrix" values="0 0 0 0 1 0 0 0 0 1 0 0 0 0 1 0 0 0 0.1 0"/>
<feBlend mode="normal" in2="shape" result="effect3_innerShadow_2_1767"/>
</filter>
<filter id="filter1_i_2_1767" x="38.0668" y="34.1717" width="34.0421" height="34.8185" filterUnits="userSpaceOnUse" color-interpolation-filters="sRGB">
<feFlood flood-opacity="0" result="BackgroundImageFix"/>
<feBlend mode="normal" in="SourceGraphic" in2="BackgroundImageFix" result="shape"/>
<feColorMatrix in="SourceAlpha" type="matrix" values="0 0 0 0 0 0 0 0 0 0 0 0 0 0 0 0 0 0 127 0" result="hardAlpha"/>
<feOffset dy="-0.779319"/>
<feGaussianBlur stdDeviation="0.779319"/>
<feComposite in2="hardAlpha" operator="arithmetic" k2="-1" k3="1"/>
<feColorMatrix type="matrix" values="0 0 0 0 0 0 0 0 0 0 0 0 0 0 0 0 0 0 0.45 0"/>
<feBlend mode="normal" in2="shape" result="effect1_innerShadow_2_1767"/>
</filter>
<linearGradient id="paint0_linear_2_1767" x1="55.0883" y1="34.9511" x2="55.0883" y2="94.5191" gradientUnits="userSpaceOnUse">
<stop stop-color="#1F1F21"/>
<stop offset="1" stop-color="#202022"/>
</linearGradient>
<radialGradient id="paint1_radial_2_1767" cx="0" cy="0" r="1" gradientTransform="matrix(48.2222 15.6011 -18.9378 58.5343 -1.6437 40.6243)" gradientUnits="userSpaceOnUse">
<stop stop-color="#5724E9"/>
<stop offset="1" stop-color="#5724E9" stop-opacity="0"/>
</radialGradient>
<radialGradient id="paint2_radial_2_1767" cx="0" cy="0" r="1" gradientTransform="matrix(46.8039 8.50967 -6.55851 36.0716 6.15691 44.8791)" gradientUnits="userSpaceOnUse">
<stop stop-color="#AAA8FF"/>
<stop offset="1" stop-color="#BDFFDF" stop-opacity="0"/>
</radialGradient>
<linearGradient id="paint3_linear_2_1767" x1="55.0879" y1="34.951" x2="55.0879" y2="68.9899" gradientUnits="userSpaceOnUse">
<stop stop-color="white"/>
<stop offset="1" stop-color="#BABABA"/>
</linearGradient>
<linearGradient id="paint4_linear_2_1767" x1="55.0879" y1="34.9511" x2="55.0879" y2="68.9899" gradientUnits="userSpaceOnUse">
<stop stop-color="white"/>
<stop offset="1" stop-color="#BABABA"/>
</linearGradient>
<linearGradient id="paint5_linear_2_1767" x1="55.0879" y1="34.951" x2="55.0879" y2="68.9899" gradientUnits="userSpaceOnUse">
<stop stop-color="white"/>
<stop offset="1" stop-color="#BABABA"/>
</linearGradient>
<linearGradient id="paint6_linear_2_1767" x1="55.0879" y1="34.951" x2="55.0879" y2="68.9899" gradientUnits="userSpaceOnUse">
<stop stop-color="white"/>
<stop offset="1" stop-color="#BABABA"/>
</linearGradient>
<linearGradient id="paint7_linear_2_1767" x1="55.0879" y1="34.951" x2="55.0879" y2="68.9899" gradientUnits="userSpaceOnUse">
<stop stop-color="white"/>
<stop offset="1" stop-color="#BABABA"/>
</linearGradient>
<linearGradient id="paint8_linear_2_1767" x1="55.0879" y1="34.951" x2="55.0879" y2="68.9899" gradientUnits="userSpaceOnUse">
<stop stop-color="white"/>
<stop offset="1" stop-color="#BABABA"/>
</linearGradient>
<linearGradient id="paint9_linear_2_1767" x1="55.0878" y1="34.9511" x2="55.0878" y2="68.9899" gradientUnits="userSpaceOnUse">
<stop stop-color="white"/>
<stop offset="1" stop-color="#BABABA"/>
</linearGradient>
</defs>
</svg>
