<svg width="326" height="88" viewBox="0 0 326 88" fill="none" xmlns="http://www.w3.org/2000/svg">
<path opacity="0.1" d="M281.571 0.568817H43.8C19.9241 0.568817 0.568817 19.9241 0.568817 43.8C0.568817 67.6759 19.9241 87.0312 43.8 87.0312H281.571C305.447 87.0312 324.803 67.6759 324.803 43.8C324.803 19.9241 305.447 0.568817 281.571 0.568817Z" fill="url(#paint0_linear_2_2656)" fill-opacity="0.05" stroke="url(#paint1_linear_2_2656)" stroke-width="1.13766"/>
<path opacity="0.2" d="M281.571 14.2208H43.8C27.4638 14.2208 14.2208 27.4638 14.2208 43.8C14.2208 60.1361 27.4638 73.3792 43.8 73.3792H281.571C297.908 73.3792 311.151 60.1361 311.151 43.8C311.151 27.4638 297.908 14.2208 281.571 14.2208Z" fill="url(#paint2_linear_2_2656)" fill-opacity="0.05" stroke="url(#paint3_linear_2_2656)" stroke-width="1.13766"/>
<path d="M50.626 43.8C50.626 41.6009 48.8432 39.8181 46.6441 39.8181C44.445 39.8181 42.6623 41.6009 42.6623 43.8C42.6623 45.9991 44.445 47.7818 46.6441 47.7818C48.8432 47.7818 50.626 45.9991 50.626 43.8Z" fill="url(#paint4_linear_2_2656)" stroke="url(#paint5_radial_2_2656)" stroke-width="1.13766"/>
<path d="M77.7751 42.9967V42.3414C77.7751 38.2663 79.8434 35.3789 82.9561 35.3789C86.0277 35.3789 88.1165 38.2663 88.1165 42.3414V42.9967C88.1165 47.1947 86.0277 49.9592 82.9561 49.9592C79.8434 49.9592 77.7751 47.1947 77.7751 42.9967ZM87.0312 42.9558V42.3824C87.0312 38.7373 85.4134 36.3619 82.9561 36.3619C80.4782 36.3619 78.8605 38.7373 78.8605 42.3824V42.9558C78.8605 46.6008 80.4782 48.9763 82.9561 48.9763C85.4134 48.9763 87.0312 46.6008 87.0312 42.9558ZM96.9159 42.4028C98.5746 42.6486 99.9876 43.6725 99.9876 45.9046C99.9876 48.28 97.9808 49.9592 94.991 49.9592C92.0012 49.9592 90.0353 48.3414 90.0353 45.6384H91.1002C91.1002 47.7476 92.7384 48.9967 95.0524 48.9967C97.264 48.9967 98.9023 47.7066 98.9023 45.8431C98.9023 44.0001 97.4893 42.9762 94.991 42.9762H93.8033V42.0547H94.9296C97.305 42.0547 98.5132 40.7851 98.5132 39.1059C98.5132 37.4472 97.1207 36.3414 95.0729 36.3414C92.9637 36.3414 91.4483 37.5291 91.4278 39.4131H90.363C90.3835 36.9557 92.3493 35.3789 95.0729 35.3789C97.8579 35.3789 99.5985 36.8738 99.5985 39.0649C99.5985 40.9284 98.5337 42.0752 96.9159 42.4028ZM113.684 42.9967V42.3414C113.684 38.2663 115.753 35.3789 118.865 35.3789C121.937 35.3789 124.026 38.2663 124.026 42.3414V42.9967C124.026 47.1947 121.937 49.9592 118.865 49.9592C115.753 49.9592 113.684 47.1947 113.684 42.9967ZM122.94 42.9558V42.3824C122.94 38.7373 121.323 36.3619 118.865 36.3619C116.387 36.3619 114.77 38.7373 114.77 42.3824V42.9558C114.77 46.6008 116.387 48.9763 118.865 48.9763C121.323 48.9763 122.94 46.6008 122.94 42.9558ZM132.825 42.4028C134.484 42.6486 135.897 43.6725 135.897 45.9046C135.897 48.28 133.89 49.9592 130.9 49.9592C127.91 49.9592 125.945 48.3414 125.945 45.6384H127.009C127.009 47.7476 128.648 48.9967 130.962 48.9967C133.173 48.9967 134.812 47.7066 134.812 45.8431C134.812 44.0001 133.399 42.9762 130.9 42.9762H129.713V42.0547H130.839C133.214 42.0547 134.422 40.7851 134.422 39.1059C134.422 37.4472 133.03 36.3414 130.982 36.3414C128.873 36.3414 127.358 37.5291 127.337 39.4131H126.272C126.293 36.9557 128.259 35.3789 130.982 35.3789C133.767 35.3789 135.508 36.8738 135.508 39.0649C135.508 40.9284 134.443 42.0752 132.825 42.4028Z" fill="#DDDDDD"/>
<path d="M108.636 37.9852L104.903 51.8537H103.958L107.691 37.9852H108.636Z" fill="#DDDDDD"/>
<defs>
<linearGradient id="paint0_linear_2_2656" x1="67.6818" y1="23.1396" x2="172.062" y2="63.122" gradientUnits="userSpaceOnUse">
<stop stop-color="#5686F9"/>
<stop offset="1" stop-color="#5686F9" stop-opacity="0"/>
</linearGradient>
<linearGradient id="paint1_linear_2_2656" x1="64.2779" y1="8.53245" x2="99.5454" y2="67.6909" gradientUnits="userSpaceOnUse">
<stop stop-color="#232A27"/>
<stop offset="1" stop-color="#232A27" stop-opacity="0"/>
</linearGradient>
<linearGradient id="paint2_linear_2_2656" x1="75.6545" y1="29.5792" x2="162.686" y2="73.948" gradientUnits="userSpaceOnUse">
<stop stop-color="#5686F9"/>
<stop offset="1" stop-color="#5686F9" stop-opacity="0"/>
</linearGradient>
<linearGradient id="paint3_linear_2_2656" x1="55.1766" y1="18.7714" x2="78.4987" y2="55.7454" gradientUnits="userSpaceOnUse">
<stop stop-color="#232A27"/>
<stop offset="1" stop-color="#232A27" stop-opacity="0"/>
</linearGradient>
<linearGradient id="paint4_linear_2_2656" x1="46.6441" y1="39.2493" x2="46.6441" y2="48.3506" gradientUnits="userSpaceOnUse">
<stop stop-color="#5686F9"/>
<stop offset="1" stop-color="#3D65C4"/>
</linearGradient>
<radialGradient id="paint5_radial_2_2656" cx="0" cy="0" r="1" gradientUnits="userSpaceOnUse" gradientTransform="translate(46.2577 39.2493) rotate(87.5684) scale(9.1095 9.98109)">
<stop stop-color="white" stop-opacity="0.48"/>
<stop offset="1" stop-color="white" stop-opacity="0.04"/>
</radialGradient>
</defs>
</svg>
