<svg width="326" height="88" viewBox="0 0 326 88" fill="none" xmlns="http://www.w3.org/2000/svg">
<path opacity="0.1" d="M281.571 0.568817H43.8C19.9241 0.568817 0.568848 19.9241 0.568848 43.8C0.568848 67.6759 19.9241 87.0312 43.8 87.0312H281.571C305.447 87.0312 324.803 67.6759 324.803 43.8C324.803 19.9241 305.447 0.568817 281.571 0.568817Z" fill="url(#paint0_linear_2_1888)" fill-opacity="0.05" stroke="url(#paint1_linear_2_1888)" stroke-width="1.13766"/>
<path opacity="0.2" d="M281.571 14.2208H43.8C27.4639 14.2208 14.2208 27.4638 14.2208 43.8C14.2208 60.1361 27.4639 73.3792 43.8 73.3792H281.571C297.908 73.3792 311.151 60.1361 311.151 43.8C311.151 27.4638 297.908 14.2208 281.571 14.2208Z" fill="url(#paint2_linear_2_1888)" fill-opacity="0.05" stroke="url(#paint3_linear_2_1888)" stroke-width="1.13766"/>
<path d="M50.626 43.8C50.626 41.6009 48.8433 39.8181 46.6442 39.8181C44.4451 39.8181 42.6624 41.6009 42.6624 43.8C42.6624 45.9991 44.4451 47.7818 46.6442 47.7818C48.8433 47.7818 50.626 45.9991 50.626 43.8Z" fill="url(#paint4_linear_2_1888)" stroke="url(#paint5_radial_2_1888)" stroke-width="1.13766"/>
<path d="M77.7752 42.9967V42.3414C77.7752 38.2663 79.8434 35.3789 82.9561 35.3789C86.0278 35.3789 88.1165 38.2663 88.1165 42.3414V42.9967C88.1165 47.1947 86.0278 49.9592 82.9561 49.9592C79.8434 49.9592 77.7752 47.1947 77.7752 42.9967ZM87.0312 42.9558V42.3824C87.0312 38.7373 85.4134 36.3619 82.9561 36.3619C80.4783 36.3619 78.8605 38.7373 78.8605 42.3824V42.9558C78.8605 46.6008 80.4783 48.9763 82.9561 48.9763C85.4134 48.9763 87.0312 46.6008 87.0312 42.9558ZM89.9306 49.8363V48.9148L95.5006 43.8568C96.8521 42.6281 98.2241 41.379 98.2241 39.5769C98.2241 37.5496 96.8316 36.3414 94.661 36.3414C92.5108 36.3414 91.1388 37.7134 91.1388 39.9455V40.2322H90.0739V39.8841C90.0739 37.181 91.876 35.3789 94.661 35.3789C97.5688 35.3789 99.3095 36.9967 99.3095 39.5155C99.3095 41.6861 97.8351 43.0581 96.1763 44.553L91.405 48.8534H99.4938V49.8363H89.9306ZM112.944 42.9967V42.3414C112.944 38.2663 115.013 35.3789 118.125 35.3789C121.197 35.3789 123.286 38.2663 123.286 42.3414V42.9967C123.286 47.1947 121.197 49.9592 118.125 49.9592C115.013 49.9592 112.944 47.1947 112.944 42.9967ZM122.201 42.9558V42.3824C122.201 38.7373 120.583 36.3619 118.125 36.3619C115.648 36.3619 114.03 38.7373 114.03 42.3824V42.9558C114.03 46.6008 115.648 48.9763 118.125 48.9763C120.583 48.9763 122.201 46.6008 122.201 42.9558ZM132.085 42.4028C133.744 42.6486 135.157 43.6725 135.157 45.9046C135.157 48.28 133.15 49.9592 130.16 49.9592C127.171 49.9592 125.205 48.3414 125.205 45.6384H126.27C126.27 47.7476 127.908 48.9967 130.222 48.9967C132.433 48.9967 134.072 47.7066 134.072 45.8431C134.072 44.0001 132.659 42.9762 130.16 42.9762H128.973V42.0547H130.099C132.474 42.0547 133.683 40.7851 133.683 39.1059C133.683 37.4472 132.29 36.3414 130.242 36.3414C128.133 36.3414 126.618 37.5291 126.597 39.4131H125.532C125.553 36.9557 127.519 35.3789 130.242 35.3789C133.027 35.3789 134.768 36.8738 134.768 39.0649C134.768 40.9284 133.703 42.0752 132.085 42.4028Z" fill="#DDDDDD"/>
<path d="M108.636 37.9852L104.903 51.8537H103.958L107.691 37.9852H108.636Z" fill="#DDDDDD"/>
<defs>
<linearGradient id="paint0_linear_2_1888" x1="67.6818" y1="23.1396" x2="172.062" y2="63.122" gradientUnits="userSpaceOnUse">
<stop stop-color="#3624FF"/>
<stop offset="1" stop-color="#7724FF" stop-opacity="0"/>
</linearGradient>
<linearGradient id="paint1_linear_2_1888" x1="64.2779" y1="8.53245" x2="99.5455" y2="67.6909" gradientUnits="userSpaceOnUse">
<stop stop-color="#232A27"/>
<stop offset="1" stop-color="#232A27" stop-opacity="0"/>
</linearGradient>
<linearGradient id="paint2_linear_2_1888" x1="75.6546" y1="29.5792" x2="162.686" y2="73.948" gradientUnits="userSpaceOnUse">
<stop stop-color="#5520F4"/>
<stop offset="1" stop-color="#4324FF" stop-opacity="0"/>
</linearGradient>
<linearGradient id="paint3_linear_2_1888" x1="55.1767" y1="18.7714" x2="78.4987" y2="55.7454" gradientUnits="userSpaceOnUse">
<stop stop-color="#232A27"/>
<stop offset="1" stop-color="#232A27" stop-opacity="0"/>
</linearGradient>
<linearGradient id="paint4_linear_2_1888" x1="46.6442" y1="39.2493" x2="46.6442" y2="48.3506" gradientUnits="userSpaceOnUse">
<stop stop-color="#5520F4"/>
<stop offset="1" stop-color="#5024FF"/>
</linearGradient>
<radialGradient id="paint5_radial_2_1888" cx="0" cy="0" r="1" gradientUnits="userSpaceOnUse" gradientTransform="translate(46.2577 39.2493) rotate(87.5684) scale(9.1095 9.98109)">
<stop stop-color="white" stop-opacity="0.48"/>
<stop offset="1" stop-color="white" stop-opacity="0.04"/>
</radialGradient>
</defs>
</svg>
